<svg width="80" height="80" viewBox="0 0 80 80" fill="none" xmlns="http://www.w3.org/2000/svg">
<rect width="80" height="80" rx="4" fill="white"/>
<circle cx="40" cy="16" r="4" fill="black"/>
<path d="M32 25.1231C32 22.5208 34.4456 20.6114 36.9701 21.2425L39.0299 21.7575C39.6668 21.9167 40.3332 21.9167 40.9701 21.7575L43.0299 21.2425C45.5544 20.6114 48 22.5208 48 25.1231V33C48 35.2091 46.2091 37 44 37H36C33.7909 37 32 35.2091 32 33V25.1231Z" fill="black"/>
<rect x="32" y="27" width="16" height="10" fill="black"/>
<circle cx="66" cy="33" r="4" fill="black"/>
<path d="M58 42.1231C58 39.5208 60.4456 37.6114 62.9701 38.2425L65.0299 38.7575C65.6668 38.9167 66.3332 38.9167 66.9701 38.7575L69.0299 38.2425C71.5544 37.6114 74 39.5208 74 42.1231V50C74 52.2091 72.2091 54 70 54H62C59.7909 54 58 52.2091 58 50V42.1231Z" fill="black"/>
<rect x="58" y="44" width="16" height="10" fill="black"/>
<circle cx="14" cy="33" r="4" fill="black"/>
<path d="M6 42.1231C6 39.5208 8.44556 37.6114 10.9701 38.2425L13.0299 38.7575C13.6668 38.9167 14.3332 38.9167 14.9701 38.7575L17.0299 38.2425C19.5544 37.6114 22 39.5208 22 42.1231V50C22 52.2091 20.2091 54 18 54H10C7.79086 54 6 52.2091 6 50V42.1231Z" fill="black"/>
<rect x="6" y="44" width="16" height="10" fill="black"/>
<rect x="24" y="28" width="32" height="32" rx="8" fill="#717171"/>
<circle cx="40" cy="48" r="4" fill="black"/>
<path d="M32 57.1231C32 54.5208 34.4456 52.6114 36.9701 53.2425L39.0299 53.7575C39.6668 53.9167 40.3332 53.9167 40.9701 53.7575L43.0299 53.2425C45.5544 52.6114 48 54.5208 48 57.1231V65C48 67.2091 46.2091 69 44 69H36C33.7909 69 32 67.2091 32 65V57.1231Z" fill="black"/>
<rect x="32" y="59" width="16" height="10" fill="black"/>
<ellipse cx="40" cy="36.3333" rx="2" ry="2.33333" fill="#FFE600"/>
<path d="M40 41L38.2679 37.5H41.7321L40 41Z" fill="#FFE600"/>
<rect x="39" y="38.6667" width="2" height="2.33333" fill="#7B7B7B" fill-opacity="0.9"/>
<line x1="39" y1="39" x2="41" y2="39" stroke="#4E4E4E" stroke-width="0.5"/>
<line x1="39" y1="39.5833" x2="41" y2="39.5833" stroke="#4E4E4E" stroke-width="0.5"/>
<line x1="39" y1="40.1667" x2="41" y2="40.1667" stroke="#4E4E4E" stroke-width="0.5"/>
<line x1="39" y1="40.75" x2="41" y2="40.75" stroke="#4E4E4E" stroke-width="0.5"/>
</svg>
