<svg width="68" height="57" viewBox="0 0 68 57" fill="none" xmlns="http://www.w3.org/2000/svg">
<circle cx="34" cy="4" r="4" fill="black"/>
<path d="M26 13.1231C26 10.5208 28.4456 8.61139 30.9701 9.24254L33.0299 9.75746C33.6668 9.9167 34.3332 9.9167 34.9701 9.75746L37.0299 9.24254C39.5544 8.61139 42 10.5208 42 13.1231V21C42 23.2091 40.2091 25 38 25H30C27.7909 25 26 23.2091 26 21V13.1231Z" fill="black"/>
<rect x="26" y="15" width="16" height="10" fill="black"/>
<circle cx="60" cy="21" r="4" fill="black"/>
<path d="M52 30.1231C52 27.5208 54.4456 25.6114 56.9701 26.2425L59.0299 26.7575C59.6668 26.9167 60.3332 26.9167 60.9701 26.7575L63.0299 26.2425C65.5544 25.6114 68 27.5208 68 30.1231V38C68 40.2091 66.2091 42 64 42H56C53.7909 42 52 40.2091 52 38V30.1231Z" fill="black"/>
<rect x="52" y="32" width="16" height="10" fill="black"/>
<circle cx="8" cy="21" r="4" fill="black"/>
<path d="M0 30.1231C0 27.5208 2.44556 25.6114 4.97014 26.2425L7.02986 26.7575C7.66682 26.9167 8.33318 26.9167 8.97014 26.7575L11.0299 26.2425C13.5544 25.6114 16 27.5208 16 30.1231V38C16 40.2091 14.2091 42 12 42H4C1.79086 42 0 40.2091 0 38V30.1231Z" fill="black"/>
<rect y="32" width="16" height="10" fill="black"/>
<rect x="18" y="16" width="32" height="32" rx="8" fill="#717171"/>
<circle cx="34" cy="36" r="4" fill="black"/>
<path d="M26 45.1231C26 42.5208 28.4456 40.6114 30.9701 41.2425L33.0299 41.7575C33.6668 41.9167 34.3332 41.9167 34.9701 41.7575L37.0299 41.2425C39.5544 40.6114 42 42.5208 42 45.1231V53C42 55.2091 40.2091 57 38 57H30C27.7909 57 26 55.2091 26 53V45.1231Z" fill="black"/>
<rect x="26" y="47" width="16" height="10" fill="black"/>
<ellipse cx="34" cy="24.3333" rx="2" ry="2.33333" fill="#FFE600"/>
<path d="M34 29L32.2679 25.5H35.7321L34 29Z" fill="#FFE600"/>
<rect x="33" y="26.6667" width="2" height="2.33333" fill="#7B7B7B" fill-opacity="0.9"/>
<line x1="33" y1="27" x2="35" y2="27" stroke="#4E4E4E" stroke-width="0.5"/>
<line x1="33" y1="27.5833" x2="35" y2="27.5833" stroke="#4E4E4E" stroke-width="0.5"/>
<line x1="33" y1="28.1667" x2="35" y2="28.1667" stroke="#4E4E4E" stroke-width="0.5"/>
<line x1="33" y1="28.75" x2="35" y2="28.75" stroke="#4E4E4E" stroke-width="0.5"/>
</svg>
