<svg width="837" height="368" viewBox="0 0 837 368" fill="none" xmlns="http://www.w3.org/2000/svg">
<rect y="14" width="837" height="354" fill="#FFD2D2"/>
<rect x="179" y="101" width="180" height="180" rx="5" fill="#AEAEAE"/>
<rect x="415" y="133" width="243" height="40" rx="5" fill="black"/>
<rect x="415" y="133" width="243" height="40" rx="5" fill="black"/>
<rect x="415" y="205" width="162" height="40" rx="5" fill="black"/>
<rect x="415" y="205" width="162" height="40" rx="5" fill="black"/>
<path d="M330.715 13.3416L297.479 147.714L266.694 167.726L266.542 167.825L266.488 167.998L248.878 224.937L219.841 247.922L330.715 13.3416ZM267.39 168.466L297.128 149.136L285.561 195.899L250.264 223.84L267.39 168.466ZM286.491 196.305L298.355 148.338L334.062 125.127L211.331 349.722L249.742 225.529L286.316 196.577L286.45 196.471L286.491 196.305Z" fill="#FF7C02" stroke="#FF9900"/>
</svg>
