<svg width="886" height="406" viewBox="0 0 886 406" fill="none" xmlns="http://www.w3.org/2000/svg">
<rect x="49" y="52" width="837" height="354" fill="#D6FCF3"/>
<rect x="228" y="139" width="180" height="180" rx="5" fill="#AEAEAE"/>
<rect x="464" y="171" width="243" height="40" rx="5" fill="black"/>
<rect x="464" y="171" width="243" height="40" rx="5" fill="black"/>
<rect x="464" y="243" width="162" height="40" rx="5" fill="black"/>
<rect x="464" y="243" width="162" height="40" rx="5" fill="black"/>
<path d="M139.958 403.095C137.981 403.393 136.041 403.105 134.14 402.23C132.351 401.145 131.026 399.7 130.165 397.895L125.644 388.417C124.956 386.973 124.662 385.47 124.765 383.906C124.979 382.133 125.279 380.54 125.665 379.127L162.21 271.76L85.6723 283.281C83.6946 283.579 81.7553 283.29 79.8542 282.416C78.0649 281.331 76.7397 279.885 75.8787 278.08L71.6167 269.145C70.7557 267.34 70.6602 265.806 71.3302 264.544C72.1119 263.072 73.4916 262.187 75.4693 261.89L181.08 245.993C183.057 245.695 184.941 246.089 186.73 247.174C188.631 248.048 190.012 249.388 190.873 251.193L195.652 261.212C196.341 262.656 196.535 264.175 196.235 265.768C196.133 267.331 195.888 268.819 195.502 270.231L159.718 377.194L243.969 364.512C246.144 364.184 248.084 364.473 249.787 365.377C251.49 366.282 252.815 367.727 253.762 369.713L258.024 378.648C258.885 380.453 258.925 382.092 258.143 383.564C257.473 384.826 256.149 385.605 254.172 385.903L139.958 403.095Z" fill="#29ABF4"/>
<path d="M437.601 256.485C435.623 256.187 434.201 255.393 433.333 254.101C432.749 252.659 432.888 251.035 433.749 249.23L438.269 239.753C438.958 238.309 440.042 236.924 441.522 235.599C443.286 234.123 444.963 232.828 446.555 231.713L573.765 148.996L497.227 137.475C495.249 137.177 493.827 136.382 492.959 135.091C492.375 133.649 492.513 132.025 493.374 130.22L497.636 121.284C498.498 119.479 499.78 118.124 501.483 117.22C503.47 116.164 505.452 115.786 507.43 116.083L613.04 131.98C615.018 132.278 616.299 133.148 616.883 134.59C617.751 135.882 617.754 137.43 616.893 139.235L612.114 149.254C611.426 150.698 610.242 152.068 608.565 153.363C607.085 154.688 605.549 155.908 603.957 157.023L477.767 239.604L562.018 252.286C564.193 252.613 565.616 253.408 566.286 254.67C566.956 255.931 566.817 257.555 565.87 259.541L561.608 268.476C560.747 270.282 559.323 271.712 557.336 272.767C555.633 273.672 553.792 273.975 551.815 273.677L437.601 256.485Z" fill="#29ABF4"/>
<path d="M270.2 310C268.2 310 266.5 309.4 265.1 308.2C263.9 306.8 263.3 305.1 263.3 303.1V292.6C263.3 291 263.7 289.4 264.5 287.8C265.5 286 266.5 284.4 267.5 283L350.3 177.7H272.9C270.9 177.7 269.2 177.1 267.8 175.9C266.6 174.5 266 172.8 266 170.8V160.9C266 158.9 266.6 157.3 267.8 156.1C269.2 154.7 270.9 154 272.9 154H379.7C381.7 154 383.3 154.7 384.5 156.1C385.9 157.3 386.6 158.9 386.6 160.9V172C386.6 173.6 386.1 175.2 385.1 176.8C384.3 178.4 383.4 179.9 382.4 181.3L300.5 286.3H385.7C387.9 286.3 389.6 286.9 390.8 288.1C392 289.3 392.6 291 392.6 293.2V303.1C392.6 305.1 391.9 306.8 390.5 308.2C389.3 309.4 387.7 310 385.7 310H270.2Z" fill="#29ABF4"/>
</svg>
