<svg width="300" height="301" viewBox="0 0 300 301" fill="none" xmlns="http://www.w3.org/2000/svg">
<rect x="1" y="1.99023" width="298" height="298" rx="15" fill="#BFF0FF" stroke="black" stroke-width="2"/>
<path d="M103 250.998C101.333 250.998 99.9167 250.498 98.75 249.498C97.75 248.331 97.25 246.915 97.25 245.248V236.498C97.25 235.165 97.5833 233.831 98.25 232.498C99.0833 230.998 99.9167 229.665 100.75 228.498L169.75 140.748H105.25C103.583 140.748 102.167 140.248 101 139.248C100 138.081 99.5 136.665 99.5 134.998V126.748C99.5 125.081 100 123.748 101 122.748C102.167 121.581 103.583 120.998 105.25 120.998H194.25C195.917 120.998 197.25 121.581 198.25 122.748C199.417 123.748 200 125.081 200 126.748V135.998C200 137.331 199.583 138.665 198.75 139.998C198.083 141.331 197.333 142.581 196.5 143.748L128.25 231.248H199.25C201.083 231.248 202.5 231.748 203.5 232.748C204.5 233.748 205 235.165 205 236.998V245.248C205 246.915 204.417 248.331 203.25 249.498C202.25 250.498 200.917 250.998 199.25 250.998H103Z" fill="#015E93"/>
<path d="M197.522 100.868C196.865 100.753 196.342 100.457 195.952 99.9823C195.639 99.4533 195.54 98.8605 195.656 98.204L196.264 94.7571C196.356 94.2319 196.58 93.7298 196.935 93.2509C197.368 92.7179 197.789 92.2506 198.198 91.8489L231.474 62.0748L206.066 57.5947C205.409 57.4789 204.886 57.1835 204.496 56.7086C204.183 56.1795 204.084 55.5868 204.2 54.9302L204.773 51.6804C204.889 51.0238 205.179 50.5333 205.642 50.2089C206.183 49.8303 206.781 49.6989 207.438 49.8147L242.497 55.9966C243.153 56.1123 243.638 56.4347 243.951 56.9638C244.341 57.4387 244.478 58.0045 244.362 58.661L243.72 62.3048C243.627 62.83 243.371 63.3263 242.95 63.7937C242.594 64.2726 242.212 64.7129 241.803 65.1146L208.84 94.8423L236.809 99.7739C237.531 99.9012 238.054 100.197 238.378 100.66C238.703 101.123 238.802 101.716 238.674 102.438L238.101 105.688C237.985 106.345 237.657 106.862 237.117 107.241C236.653 107.565 236.093 107.67 235.437 107.554L197.522 100.868Z" fill="#015E93"/>
<path d="M252.255 44.4187C251.801 44.2074 251.48 43.8918 251.289 43.472C251.165 43.028 251.209 42.5794 251.42 42.1263L252.53 39.7472C252.699 39.3847 252.958 39.0644 253.309 38.7864C253.725 38.4843 254.121 38.2274 254.495 38.0158L284.381 22.9055L266.844 14.7278C266.391 14.5165 266.069 14.2009 265.879 13.7811C265.755 13.3371 265.799 12.8886 266.01 12.4354L267.056 10.1923C267.267 9.73915 267.572 9.44002 267.971 9.29491C268.436 9.12562 268.895 9.14663 269.348 9.35794L293.547 20.6418C294 20.8532 294.289 21.1808 294.413 21.6248C294.603 22.0446 294.592 22.4811 294.381 22.9342L293.208 25.4492C293.039 25.8118 292.757 26.1215 292.361 26.3783C292.011 26.6563 291.649 26.9011 291.274 27.1127L261.624 42.2501L280.928 51.2519C281.427 51.4843 281.748 51.7999 281.894 52.1986C282.039 52.5973 281.995 53.0458 281.763 53.5443L280.717 55.7874C280.505 56.2406 280.167 56.5518 279.702 56.7211C279.303 56.8662 278.877 56.8331 278.424 56.6218L252.255 44.4187Z" fill="#015E93"/>
</svg>

