<svg width="300" height="300" viewBox="0 0 300 300" fill="none" xmlns="http://www.w3.org/2000/svg">
<rect width="300" height="300" fill="#555555"/>
<path d="M62.5469 165.594L70.2031 125.125H81.8828L69.2656 182H57.4688L48.2109 143.953L38.9531 182H27.1562L14.5391 125.125H26.2188L33.9141 165.516L43.2891 125.125H53.2109L62.5469 165.594ZM105.711 182.781C99.513 182.781 94.4609 180.88 90.5547 177.078C86.6745 173.276 84.7344 168.211 84.7344 161.883V160.789C84.7344 156.544 85.5547 152.755 87.1953 149.422C88.8359 146.062 91.1536 143.484 94.1484 141.688C97.1693 139.865 100.607 138.953 104.461 138.953C110.242 138.953 114.786 140.776 118.094 144.422C121.427 148.068 123.094 153.237 123.094 159.93V164.539H96.1797C96.5443 167.299 97.638 169.513 99.4609 171.18C101.31 172.846 103.641 173.68 106.453 173.68C110.802 173.68 114.201 172.104 116.648 168.953L122.195 175.164C120.503 177.56 118.211 179.435 115.32 180.789C112.43 182.117 109.227 182.781 105.711 182.781ZM104.422 148.094C102.182 148.094 100.359 148.849 98.9531 150.359C97.5729 151.87 96.6875 154.031 96.2969 156.844H112V155.945C111.948 153.445 111.271 151.518 109.969 150.164C108.667 148.784 106.818 148.094 104.422 148.094ZM142 161.961V182H130.281V125.125H152.469C156.74 125.125 160.49 125.906 163.719 127.469C166.974 129.031 169.474 131.258 171.219 134.148C172.964 137.013 173.836 140.281 173.836 143.953C173.836 149.526 171.922 153.927 168.094 157.156C164.292 160.359 159.018 161.961 152.273 161.961H142ZM142 152.469H152.469C155.568 152.469 157.924 151.74 159.539 150.281C161.18 148.823 162 146.74 162 144.031C162 141.245 161.18 138.992 159.539 137.273C157.898 135.555 155.633 134.669 152.742 134.617H142V152.469ZM193.094 182H181.766V122H193.094V182ZM226.922 182C226.401 180.984 226.023 179.721 225.789 178.211C223.055 181.258 219.5 182.781 215.125 182.781C210.984 182.781 207.547 181.583 204.812 179.188C202.104 176.792 200.75 173.771 200.75 170.125C200.75 165.646 202.404 162.208 205.711 159.812C209.044 157.417 213.849 156.206 220.125 156.18H225.32V153.758C225.32 151.805 224.812 150.242 223.797 149.07C222.807 147.898 221.232 147.312 219.07 147.312C217.169 147.312 215.672 147.768 214.578 148.68C213.51 149.591 212.977 150.841 212.977 152.43H201.688C201.688 149.982 202.443 147.716 203.953 145.633C205.464 143.549 207.599 141.922 210.359 140.75C213.12 139.552 216.219 138.953 219.656 138.953C224.865 138.953 228.992 140.268 232.039 142.898C235.112 145.503 236.648 149.174 236.648 153.914V172.234C236.674 176.245 237.234 179.279 238.328 181.336V182H226.922ZM217.586 174.148C219.253 174.148 220.789 173.784 222.195 173.055C223.602 172.299 224.643 171.297 225.32 170.047V162.781H221.102C215.451 162.781 212.443 164.734 212.078 168.641L212.039 169.305C212.039 170.711 212.534 171.87 213.523 172.781C214.513 173.693 215.867 174.148 217.586 174.148ZM255.711 139.734L256.062 144.617C259.083 140.841 263.133 138.953 268.211 138.953C272.69 138.953 276.023 140.268 278.211 142.898C280.398 145.529 281.518 149.461 281.57 154.695V182H270.281V154.969C270.281 152.573 269.76 150.841 268.719 149.773C267.677 148.68 265.945 148.133 263.523 148.133C260.346 148.133 257.964 149.487 256.375 152.195V182H245.086V139.734H255.711Z" fill="#FF9900"/>
</svg>
