<svg width="1128" height="191" viewBox="0 0 1128 191" fill="none" xmlns="http://www.w3.org/2000/svg">
<rect width="1128" height="191" fill="#555555"/>
<path d="M187.703 134.906L204.547 45.875H230.242L202.484 171H176.531L156.164 87.2969L135.797 171H109.844L82.0859 45.875H107.781L124.711 134.734L145.336 45.875H167.164L187.703 134.906ZM282.664 172.719C269.029 172.719 257.914 168.536 249.32 160.172C240.784 151.807 236.516 140.664 236.516 126.742V124.336C236.516 114.997 238.32 106.661 241.93 99.3281C245.539 91.9375 250.638 86.2656 257.227 82.3125C263.872 78.3021 271.435 76.2969 279.914 76.2969C292.633 76.2969 302.63 80.3073 309.906 88.3281C317.24 96.349 320.906 107.721 320.906 122.445V132.586H261.695C262.497 138.659 264.904 143.529 268.914 147.195C272.982 150.862 278.109 152.695 284.297 152.695C293.865 152.695 301.341 149.229 306.727 142.297L318.93 155.961C315.206 161.232 310.164 165.357 303.805 168.336C297.445 171.258 290.398 172.719 282.664 172.719ZM279.828 96.4062C274.901 96.4062 270.891 98.0677 267.797 101.391C264.76 104.714 262.812 109.469 261.953 115.656H296.5V113.68C296.385 108.18 294.896 103.94 292.031 100.961C289.167 97.9245 285.099 96.4062 279.828 96.4062ZM362.5 126.914V171H336.719V45.875H385.531C394.927 45.875 403.177 47.5938 410.281 51.0312C417.443 54.4688 422.943 59.3672 426.781 65.7266C430.62 72.0286 432.539 79.2188 432.539 87.2969C432.539 99.5573 428.328 109.24 419.906 116.344C411.542 123.391 399.94 126.914 385.102 126.914H362.5ZM362.5 106.031H385.531C392.349 106.031 397.534 104.427 401.086 101.219C404.695 98.0104 406.5 93.4271 406.5 87.4688C406.5 81.3385 404.695 76.3828 401.086 72.6016C397.477 68.8203 392.492 66.8724 386.133 66.7578H362.5V106.031ZM474.906 171H449.984V39H474.906V171ZM549.328 171C548.182 168.766 547.352 165.987 546.836 162.664C540.82 169.367 533 172.719 523.375 172.719C514.266 172.719 506.703 170.083 500.688 164.812C494.729 159.542 491.75 152.896 491.75 144.875C491.75 135.021 495.388 127.458 502.664 122.188C509.997 116.917 520.568 114.253 534.375 114.195H545.805V108.867C545.805 104.57 544.688 101.133 542.453 98.5547C540.276 95.9766 536.81 94.6875 532.055 94.6875C527.872 94.6875 524.578 95.6901 522.172 97.6953C519.823 99.7005 518.648 102.451 518.648 105.945H493.812C493.812 100.56 495.474 95.5755 498.797 90.9922C502.12 86.4089 506.818 82.8281 512.891 80.25C518.964 77.6146 525.781 76.2969 533.344 76.2969C544.802 76.2969 553.883 79.1901 560.586 84.9766C567.346 90.7057 570.727 98.7839 570.727 109.211V149.516C570.784 158.339 572.016 165.013 574.422 169.539V171H549.328ZM528.789 153.727C532.456 153.727 535.836 152.924 538.93 151.32C542.023 149.659 544.315 147.453 545.805 144.703V128.719H536.523C524.091 128.719 517.474 133.016 516.672 141.609L516.586 143.07C516.586 146.164 517.674 148.714 519.852 150.719C522.029 152.724 525.008 153.727 528.789 153.727ZM612.664 78.0156L613.438 88.7578C620.083 80.4505 628.992 76.2969 640.164 76.2969C650.018 76.2969 657.352 79.1901 662.164 84.9766C666.977 90.763 669.44 99.4141 669.555 110.93V171H644.719V111.531C644.719 106.26 643.573 102.451 641.281 100.102C638.99 97.6953 635.18 96.4922 629.852 96.4922C622.862 96.4922 617.62 99.4714 614.125 105.43V171H589.289V78.0156H612.664Z" fill="#FF9900"/>
<path d="M726.688 126.914V171H700.906V45.875H749.719C759.115 45.875 767.365 47.5938 774.469 51.0312C781.63 54.4688 787.13 59.3672 790.969 65.7266C794.807 72.0286 796.727 79.2188 796.727 87.2969C796.727 99.5573 792.516 109.24 784.094 116.344C775.729 123.391 764.128 126.914 749.289 126.914H726.688ZM726.688 106.031H749.719C756.536 106.031 761.721 104.427 765.273 101.219C768.883 98.0104 770.688 93.4271 770.688 87.4688C770.688 81.3385 768.883 76.3828 765.273 72.6016C761.664 68.8203 756.68 66.8724 750.32 66.7578H726.688V106.031ZM860.836 125.195H840.297V171H814.516V45.875H861.008C875.789 45.875 887.19 49.1693 895.211 55.7578C903.232 62.3464 907.242 71.6562 907.242 83.6875C907.242 92.224 905.38 99.3568 901.656 105.086C897.99 110.758 892.404 115.284 884.898 118.664L911.969 169.797V171H884.297L860.836 125.195ZM840.297 104.312H861.094C867.568 104.312 872.581 102.68 876.133 99.4141C879.685 96.0911 881.461 91.5365 881.461 85.75C881.461 79.849 879.771 75.2083 876.391 71.8281C873.068 68.4479 867.94 66.7578 861.008 66.7578H840.297V104.312ZM1029.7 111.273C1029.7 123.591 1027.53 134.391 1023.17 143.672C1018.82 152.953 1012.57 160.115 1004.44 165.156C996.359 170.198 987.078 172.719 976.594 172.719C966.224 172.719 956.971 170.227 948.836 165.242C940.701 160.258 934.398 153.154 929.93 143.93C925.461 134.648 923.198 123.992 923.141 111.961V105.773C923.141 93.4557 925.346 82.6276 929.758 73.2891C934.227 63.8932 940.5 56.7031 948.578 51.7188C956.714 46.6771 965.995 44.1562 976.422 44.1562C986.849 44.1562 996.102 46.6771 1004.18 51.7188C1012.32 56.7031 1018.59 63.8932 1023 73.2891C1027.47 82.6276 1029.7 93.4271 1029.7 105.688V111.273ZM1003.58 105.602C1003.58 92.4818 1001.23 82.513 996.531 75.6953C991.833 68.8776 985.13 65.4688 976.422 65.4688C967.771 65.4688 961.096 68.849 956.398 75.6094C951.701 82.3125 949.323 92.1667 949.266 105.172V111.273C949.266 124.049 951.615 133.961 956.312 141.008C961.01 148.055 967.771 151.578 976.594 151.578C985.245 151.578 991.891 148.198 996.531 141.438C1001.17 134.62 1003.52 124.708 1003.58 111.703V105.602Z" fill="#B3B6B2"/>
</svg>
