<svg width="300" height="103" viewBox="0 0 300 103" fill="none" xmlns="http://www.w3.org/2000/svg">
<rect width="300" height="103" fill="#555555"/>
<path d="M62.5469 66.5938L70.2031 26.125H81.8828L69.2656 83H57.4688L48.2109 44.9531L38.9531 83H27.1562L14.5391 26.125H26.2188L33.9141 66.5156L43.2891 26.125H53.2109L62.5469 66.5938ZM105.711 83.7812C99.513 83.7812 94.4609 81.8802 90.5547 78.0781C86.6745 74.276 84.7344 69.2109 84.7344 62.8828V61.7891C84.7344 57.5443 85.5547 53.7552 87.1953 50.4219C88.8359 47.0625 91.1536 44.4844 94.1484 42.6875C97.1693 40.8646 100.607 39.9531 104.461 39.9531C110.242 39.9531 114.786 41.776 118.094 45.4219C121.427 49.0677 123.094 54.237 123.094 60.9297V65.5391H96.1797C96.5443 68.2995 97.638 70.513 99.4609 72.1797C101.31 73.8464 103.641 74.6797 106.453 74.6797C110.802 74.6797 114.201 73.1042 116.648 69.9531L122.195 76.1641C120.503 78.5599 118.211 80.4349 115.32 81.7891C112.43 83.1172 109.227 83.7812 105.711 83.7812ZM104.422 49.0938C102.182 49.0938 100.359 49.849 98.9531 51.3594C97.5729 52.8698 96.6875 55.0312 96.2969 57.8438H112V56.9453C111.948 54.4453 111.271 52.5182 109.969 51.1641C108.667 49.7839 106.818 49.0938 104.422 49.0938ZM142 62.9609V83H130.281V26.125H152.469C156.74 26.125 160.49 26.9062 163.719 28.4688C166.974 30.0312 169.474 32.2578 171.219 35.1484C172.964 38.013 173.836 41.2812 173.836 44.9531C173.836 50.526 171.922 54.9271 168.094 58.1562C164.292 61.3594 159.018 62.9609 152.273 62.9609H142ZM142 53.4688H152.469C155.568 53.4688 157.924 52.7396 159.539 51.2812C161.18 49.8229 162 47.7396 162 45.0312C162 42.2448 161.18 39.9922 159.539 38.2734C157.898 36.5547 155.633 35.6693 152.742 35.6172H142V53.4688ZM193.094 83H181.766V23H193.094V83ZM226.922 83C226.401 81.9844 226.023 80.7214 225.789 79.2109C223.055 82.2578 219.5 83.7812 215.125 83.7812C210.984 83.7812 207.547 82.5833 204.812 80.1875C202.104 77.7917 200.75 74.7708 200.75 71.125C200.75 66.6458 202.404 63.2083 205.711 60.8125C209.044 58.4167 213.849 57.2057 220.125 57.1797H225.32V54.7578C225.32 52.8047 224.812 51.2422 223.797 50.0703C222.807 48.8984 221.232 48.3125 219.07 48.3125C217.169 48.3125 215.672 48.7682 214.578 49.6797C213.51 50.5911 212.977 51.8411 212.977 53.4297H201.688C201.688 50.9818 202.443 48.7161 203.953 46.6328C205.464 44.5495 207.599 42.9219 210.359 41.75C213.12 40.5521 216.219 39.9531 219.656 39.9531C224.865 39.9531 228.992 41.2682 232.039 43.8984C235.112 46.5026 236.648 50.1745 236.648 54.9141V73.2344C236.674 77.2448 237.234 80.2786 238.328 82.3359V83H226.922ZM217.586 75.1484C219.253 75.1484 220.789 74.7839 222.195 74.0547C223.602 73.2995 224.643 72.2969 225.32 71.0469V63.7812H221.102C215.451 63.7812 212.443 65.7344 212.078 69.6406L212.039 70.3047C212.039 71.7109 212.534 72.8698 213.523 73.7812C214.513 74.6927 215.867 75.1484 217.586 75.1484ZM255.711 40.7344L256.062 45.6172C259.083 41.8411 263.133 39.9531 268.211 39.9531C272.69 39.9531 276.023 41.2682 278.211 43.8984C280.398 46.5286 281.518 50.4609 281.57 55.6953V83H270.281V55.9688C270.281 53.5729 269.76 51.8411 268.719 50.7734C267.677 49.6797 265.945 49.1328 263.523 49.1328C260.346 49.1328 257.964 50.487 256.375 53.1953V83H245.086V40.7344H255.711Z" fill="#FF9900"/>
</svg>
