<svg width="300" height="300" viewBox="0 0 300 300" fill="none" xmlns="http://www.w3.org/2000/svg">
<rect width="300" height="300" fill="#555555"/>
<path d="M46.3746 163.156L50.9684 138.875H57.9762L50.4059 173H43.3278L37.7731 150.172L32.2184 173H25.1403L17.57 138.875H24.5778L29.195 163.109L34.82 138.875H40.7731L46.3746 163.156ZM72.2731 173.469C68.5543 173.469 65.5231 172.328 63.1793 170.047C60.8512 167.766 59.6871 164.727 59.6871 160.93V160.273C59.6871 157.727 60.1793 155.453 61.1637 153.453C62.1481 151.438 63.5387 149.891 65.3356 148.812C67.1481 147.719 69.2106 147.172 71.5231 147.172C74.9918 147.172 77.7184 148.266 79.7028 150.453C81.7028 152.641 82.7028 155.742 82.7028 159.758V162.523H66.5543C66.7731 164.18 67.4293 165.508 68.5231 166.508C69.6325 167.508 71.0309 168.008 72.7184 168.008C75.3278 168.008 77.3668 167.062 78.8356 165.172L82.1637 168.898C81.1481 170.336 79.7731 171.461 78.0387 172.273C76.3043 173.07 74.3825 173.469 72.2731 173.469ZM71.4996 152.656C70.1559 152.656 69.0621 153.109 68.2184 154.016C67.3903 154.922 66.859 156.219 66.6246 157.906H76.0465V157.367C76.0153 155.867 75.609 154.711 74.8278 153.898C74.0465 153.07 72.9371 152.656 71.4996 152.656ZM94.0465 160.977V173H87.0153V138.875H100.328C102.89 138.875 105.14 139.344 107.078 140.281C109.031 141.219 110.531 142.555 111.578 144.289C112.625 146.008 113.148 147.969 113.148 150.172C113.148 153.516 112 156.156 109.703 158.094C107.422 160.016 104.257 160.977 100.211 160.977H94.0465ZM94.0465 155.281H100.328C102.187 155.281 103.601 154.844 104.57 153.969C105.554 153.094 106.047 151.844 106.047 150.219C106.047 148.547 105.554 147.195 104.57 146.164C103.586 145.133 102.226 144.602 100.492 144.57H94.0465V155.281ZM124.703 173H117.906V137H124.703V173ZM145 173C144.687 172.391 144.461 171.633 144.32 170.727C142.679 172.555 140.547 173.469 137.922 173.469C135.437 173.469 133.375 172.75 131.734 171.312C130.109 169.875 129.297 168.062 129.297 165.875C129.297 163.188 130.289 161.125 132.273 159.688C134.273 158.25 137.156 157.523 140.922 157.508H144.039V156.055C144.039 154.883 143.734 153.945 143.125 153.242C142.531 152.539 141.586 152.188 140.289 152.188C139.148 152.188 138.25 152.461 137.593 153.008C136.953 153.555 136.632 154.305 136.632 155.258H129.859C129.859 153.789 130.312 152.43 131.218 151.18C132.125 149.93 133.406 148.953 135.062 148.25C136.718 147.531 138.578 147.172 140.64 147.172C143.765 147.172 146.242 147.961 148.07 149.539C149.914 151.102 150.836 153.305 150.836 156.148V167.141C150.851 169.547 151.187 171.367 151.843 172.602V173H145ZM139.398 168.289C140.398 168.289 141.32 168.07 142.164 167.633C143.007 167.18 143.632 166.578 144.039 165.828V161.469H141.507C138.117 161.469 136.312 162.641 136.093 164.984L136.07 165.383C136.07 166.227 136.367 166.922 136.961 167.469C137.554 168.016 138.367 168.289 139.398 168.289ZM162.273 147.641L162.484 150.57C164.297 148.305 166.726 147.172 169.773 147.172C172.461 147.172 174.461 147.961 175.773 149.539C177.086 151.117 177.757 153.477 177.789 156.617V173H171.015V156.781C171.015 155.344 170.703 154.305 170.078 153.664C169.453 153.008 168.414 152.68 166.961 152.68C165.054 152.68 163.625 153.492 162.672 155.117V173H155.898V147.641H162.273Z" fill="#FF9900"/>
<path d="M194.688 160.977V173H187.656V138.875H200.969C203.531 138.875 205.781 139.344 207.719 140.281C209.672 141.219 211.172 142.555 212.219 144.289C213.266 146.008 213.789 147.969 213.789 150.172C213.789 153.516 212.641 156.156 210.344 158.094C208.062 160.016 204.898 160.977 200.852 160.977H194.688ZM194.688 155.281H200.969C202.828 155.281 204.242 154.844 205.211 153.969C206.195 153.094 206.688 151.844 206.688 150.219C206.688 148.547 206.195 147.195 205.211 146.164C204.227 145.133 202.867 144.602 201.133 144.57H194.688V155.281ZM231.273 160.508H225.672V173H218.641V138.875H231.32C235.352 138.875 238.461 139.773 240.648 141.57C242.836 143.367 243.93 145.906 243.93 149.188C243.93 151.516 243.422 153.461 242.406 155.023C241.406 156.57 239.883 157.805 237.836 158.727L245.219 172.672V173H237.672L231.273 160.508ZM225.672 154.812H231.344C233.109 154.812 234.477 154.367 235.445 153.477C236.414 152.57 236.898 151.328 236.898 149.75C236.898 148.141 236.438 146.875 235.516 145.953C234.609 145.031 233.211 144.57 231.32 144.57H225.672V154.812ZM277.328 156.711C277.328 160.07 276.734 163.016 275.547 165.547C274.359 168.078 272.656 170.031 270.438 171.406C268.234 172.781 265.703 173.469 262.844 173.469C260.016 173.469 257.492 172.789 255.273 171.43C253.055 170.07 251.336 168.133 250.117 165.617C248.898 163.086 248.281 160.18 248.266 156.898V155.211C248.266 151.852 248.867 148.898 250.07 146.352C251.289 143.789 253 141.828 255.203 140.469C257.422 139.094 259.953 138.406 262.797 138.406C265.641 138.406 268.164 139.094 270.367 140.469C272.586 141.828 274.297 143.789 275.5 146.352C276.719 148.898 277.328 151.844 277.328 155.188V156.711ZM270.203 155.164C270.203 151.586 269.562 148.867 268.281 147.008C267 145.148 265.172 144.219 262.797 144.219C260.438 144.219 258.617 145.141 257.336 146.984C256.055 148.812 255.406 151.5 255.391 155.047V156.711C255.391 160.195 256.031 162.898 257.312 164.82C258.594 166.742 260.438 167.703 262.844 167.703C265.203 167.703 267.016 166.781 268.281 164.938C269.547 163.078 270.188 160.375 270.203 156.828V155.164Z" fill="#B3B6B2"/>
</svg>
