<svg width="1136" height="199" viewBox="0 0 1136 199" fill="none" xmlns="http://www.w3.org/2000/svg">
<g filter="url(#filter0_d)">
<rect x="4" width="1128" height="191" fill="#C9C9C9"/>
<g filter="url(#filter1_d)">
<g filter="url(#filter2_d)">
<rect x="189" y="11" width="432" height="110.573" fill="#555555"/>
<rect x="189.5" y="11.5" width="431" height="109.573" stroke="#555555"/>
</g>
<path d="M257.212 80.7928L265.634 36.2772H278.481L264.603 98.8397H251.626L241.442 56.9882L231.259 98.8397H218.282L204.403 36.2772H217.251L225.716 80.7069L236.028 36.2772H246.942L257.212 80.7928ZM304.692 99.6991C297.875 99.6991 292.317 97.608 288.021 93.4257C283.752 89.2434 281.618 83.6718 281.618 76.7108V75.5077C281.618 70.8384 282.521 66.6705 284.325 63.0038C286.13 59.3085 288.679 56.4725 291.974 54.496C295.297 52.4908 299.078 51.4882 303.317 51.4882C309.677 51.4882 314.675 53.4934 318.313 57.5038C321.98 61.5142 323.813 67.2004 323.813 74.5624V79.6327H294.208C294.609 82.6691 295.812 85.104 297.817 86.9374C299.851 88.7707 302.415 89.6874 305.509 89.6874C310.293 89.6874 314.031 87.9543 316.724 84.4882L322.825 91.3202C320.963 93.9556 318.442 96.0181 315.263 97.5077C312.083 98.9686 308.56 99.6991 304.692 99.6991ZM303.274 61.5428C300.811 61.5428 298.806 62.3736 297.259 64.035C295.741 65.6965 294.767 68.0741 294.337 71.1678H311.61V70.1796C311.553 67.4296 310.808 65.3098 309.376 63.8202C307.944 62.302 305.91 61.5428 303.274 61.5428ZM344.61 76.7968V98.8397H331.72V36.2772H356.126C360.824 36.2772 364.949 37.1366 368.501 38.8553C372.082 40.5741 374.832 43.0233 376.751 46.203C378.67 49.354 379.63 52.9491 379.63 56.9882C379.63 63.1184 377.524 67.9595 373.313 71.5116C369.131 75.035 363.33 76.7968 355.911 76.7968H344.61ZM344.61 66.3553H356.126C359.535 66.3553 362.127 65.5533 363.903 63.9491C365.708 62.3449 366.61 60.0533 366.61 57.0741C366.61 54.009 365.708 51.5311 363.903 49.6405C362.099 47.7499 359.606 46.7759 356.427 46.7186H344.61V66.3553ZM400.813 98.8397H388.353V32.8397H400.813V98.8397ZM438.024 98.8397C437.451 97.7225 437.036 96.3332 436.778 94.6718C433.771 98.0233 429.86 99.6991 425.048 99.6991C420.493 99.6991 416.712 98.3814 413.704 95.746C410.725 93.1106 409.235 89.7876 409.235 85.7772C409.235 80.8501 411.054 77.0689 414.692 74.4335C418.359 71.7981 423.644 70.466 430.548 70.4374H436.263V67.7733C436.263 65.6249 435.704 63.9061 434.587 62.6171C433.498 61.328 431.765 60.6835 429.388 60.6835C427.297 60.6835 425.649 61.1848 424.446 62.1874C423.272 63.19 422.685 64.565 422.685 66.3124H410.267C410.267 63.6197 411.097 61.1275 412.759 58.8358C414.42 56.5441 416.769 54.7538 419.806 53.4647C422.842 52.147 426.251 51.4882 430.032 51.4882C435.761 51.4882 440.302 52.9348 443.653 55.828C447.034 58.6926 448.724 62.7316 448.724 67.9452V88.0975C448.752 92.509 449.368 95.8462 450.571 98.1093V98.8397H438.024ZM427.755 90.203C429.588 90.203 431.278 89.802 432.825 88.9999C434.372 88.1691 435.518 87.0663 436.263 85.6913V77.6991H431.622C425.406 77.6991 422.097 79.8475 421.696 84.1444L421.653 84.8749C421.653 86.4218 422.198 87.6965 423.286 88.6991C424.375 89.7017 425.864 90.203 427.755 90.203ZM469.692 52.3475L470.079 57.7186C473.402 53.565 477.856 51.4882 483.442 51.4882C488.369 51.4882 492.036 52.9348 494.442 55.828C496.849 58.7212 498.08 63.0468 498.138 68.8046V98.8397H485.72V69.1053C485.72 66.4699 485.147 64.565 484.001 63.3905C482.855 62.1874 480.95 61.5858 478.286 61.5858C474.791 61.5858 472.17 63.0754 470.423 66.0546V98.8397H458.005V52.3475H469.692Z" fill="#FF9900"/>
<path d="M257.212 80.7928L256.238 81.0176L258.194 80.9787L257.212 80.7928ZM265.634 36.2772V35.2772H264.805L264.651 36.0913L265.634 36.2772ZM278.481 36.2772L279.458 36.4938L279.728 35.2772H278.481V36.2772ZM264.603 98.8397V99.8397H265.405L265.579 99.0563L264.603 98.8397ZM251.626 98.8397L250.654 99.0761L250.84 99.8397H251.626V98.8397ZM241.442 56.9882L242.414 56.7517H240.471L241.442 56.9882ZM231.259 98.8397V99.8397H232.045L232.23 99.0761L231.259 98.8397ZM218.282 98.8397L217.306 99.0563L217.48 99.8397H218.282V98.8397ZM204.403 36.2772V35.2772H203.157L203.427 36.4938L204.403 36.2772ZM217.251 36.2772L218.233 36.0901L218.078 35.2772H217.251V36.2772ZM225.716 80.7069L224.733 80.8941L226.69 80.933L225.716 80.7069ZM236.028 36.2772V35.2772H235.234L235.054 36.0511L236.028 36.2772ZM246.942 36.2772L247.917 36.0524L247.738 35.2772H246.942V36.2772ZM258.194 80.9787L266.616 36.4631L264.651 36.0913L256.229 80.607L258.194 80.9787ZM265.634 37.2772H278.481V35.2772H265.634V37.2772ZM277.505 36.0606L263.626 98.6231L265.579 99.0563L279.458 36.4938L277.505 36.0606ZM264.603 97.8397H251.626V99.8397H264.603V97.8397ZM252.598 98.6033L242.414 56.7517L240.471 57.2246L250.654 99.0761L252.598 98.6033ZM240.471 56.7517L230.287 98.6033L232.23 99.0761L242.414 57.2246L240.471 56.7517ZM231.259 97.8397H218.282V99.8397H231.259V97.8397ZM219.258 98.6231L205.38 36.0606L203.427 36.4938L217.306 99.0563L219.258 98.6231ZM204.403 37.2772H217.251V35.2772H204.403V37.2772ZM216.269 36.4644L224.733 80.8941L226.698 80.5198L218.233 36.0901L216.269 36.4644ZM226.69 80.933L237.002 36.5033L235.054 36.0511L224.742 80.4808L226.69 80.933ZM236.028 37.2772H246.942V35.2772H236.028V37.2772ZM245.968 36.502L256.238 81.0176L258.186 80.5681L247.917 36.0524L245.968 36.502ZM288.021 93.4257L287.321 94.1399L287.323 94.1423L288.021 93.4257ZM284.325 63.0038L285.222 63.4454L285.224 63.4426L284.325 63.0038ZM291.974 54.496L292.488 55.3535L292.49 55.3522L291.974 54.496ZM318.313 57.5038L317.573 58.1757L317.575 58.1786L318.313 57.5038ZM323.813 79.6327V80.6327H324.813V79.6327H323.813ZM294.208 79.6327V78.6327H293.067L293.217 79.7636L294.208 79.6327ZM297.817 86.9374L297.143 87.6754L297.148 87.6802L297.817 86.9374ZM316.724 84.4882L317.469 83.8221L316.67 82.927L315.934 83.8747L316.724 84.4882ZM322.825 91.3202L323.642 91.8972L324.101 91.2475L323.571 90.6541L322.825 91.3202ZM315.263 97.5077L315.68 98.4164L315.687 98.4132L315.263 97.5077ZM297.259 64.035L296.527 63.3536L296.521 63.3605L297.259 64.035ZM294.337 71.1678L293.346 71.0303L293.188 72.1678H294.337V71.1678ZM311.61 71.1678V72.1678H312.61V71.1678H311.61ZM311.61 70.1796H312.61V70.1691L312.61 70.1587L311.61 70.1796ZM309.376 63.8202L308.649 64.5064L308.655 64.5133L309.376 63.8202ZM304.692 98.6991C298.097 98.6991 292.802 96.6843 288.718 92.7091L287.323 94.1423C291.833 98.5316 297.653 100.699 304.692 100.699V98.6991ZM288.72 92.7114C284.676 88.7483 282.618 83.451 282.618 76.7108H280.618C280.618 83.8925 282.829 89.7384 287.321 94.1399L288.72 92.7114ZM282.618 76.7108V75.5077H280.618V76.7108H282.618ZM282.618 75.5077C282.618 70.9696 283.494 66.9563 285.222 63.4454L283.428 62.5622C281.547 66.3846 280.618 70.7072 280.618 75.5077H282.618ZM285.224 63.4426C286.95 59.9082 289.371 57.2235 292.488 55.3535L291.459 53.6385C287.987 55.7216 285.31 58.7087 283.427 62.5649L285.224 63.4426ZM292.49 55.3522C295.643 53.4496 299.243 52.4882 303.317 52.4882V50.4882C298.913 50.4882 294.95 51.5319 291.457 53.6398L292.49 55.3522ZM303.317 52.4882C309.449 52.4882 314.158 54.411 317.573 58.1757L319.054 56.8319C315.193 52.5757 309.905 50.4882 303.317 50.4882V52.4882ZM317.575 58.1786C321.021 61.9476 322.813 67.3603 322.813 74.5624H324.813C324.813 67.0405 322.939 61.0808 319.052 56.829L317.575 58.1786ZM322.813 74.5624V79.6327H324.813V74.5624H322.813ZM323.813 78.6327H294.208V80.6327H323.813V78.6327ZM293.217 79.7636C293.644 83.0018 294.942 85.663 297.143 87.6754L298.492 86.1993C296.683 84.5451 295.574 82.3365 295.199 79.5018L293.217 79.7636ZM297.148 87.6802C299.389 89.7008 302.202 90.6874 305.509 90.6874V88.6874C302.628 88.6874 300.313 87.8406 298.487 86.1946L297.148 87.6802ZM305.509 90.6874C310.57 90.6874 314.612 88.8358 317.513 85.1016L315.934 83.8747C313.449 87.0728 310.016 88.6874 305.509 88.6874V90.6874ZM315.978 85.1543L322.079 91.9863L323.571 90.6541L317.469 83.8221L315.978 85.1543ZM322.008 90.7432C320.255 93.2245 317.875 95.1795 314.838 96.6021L315.687 98.4132C319.009 96.8567 321.671 94.6867 323.642 91.8972L322.008 90.7432ZM314.845 96.599C311.81 97.9937 308.431 98.6991 304.692 98.6991V100.699C308.688 100.699 312.356 99.9435 315.68 98.4164L314.845 96.599ZM303.274 60.5428C300.56 60.5428 298.28 61.4704 296.527 63.3536L297.991 64.7165C299.331 63.2767 301.062 62.5428 303.274 62.5428V60.5428ZM296.521 63.3605C294.822 65.219 293.793 67.8115 293.346 71.0303L295.327 71.3054C295.74 68.3367 296.659 66.174 297.997 64.7096L296.521 63.3605ZM294.337 72.1678H311.61V70.1678H294.337V72.1678ZM312.61 71.1678V70.1796H310.61V71.1678H312.61ZM312.61 70.1587C312.549 67.2425 311.754 64.8509 310.097 63.1271L308.655 64.5133C309.862 65.7687 310.557 67.6167 310.611 70.2004L312.61 70.1587ZM310.103 63.134C308.435 61.3657 306.108 60.5428 303.274 60.5428V62.5428C305.711 62.5428 307.452 63.2382 308.649 64.5064L310.103 63.134ZM344.61 76.7968V75.7968H343.61V76.7968H344.61ZM344.61 98.8397V99.8397H345.61V98.8397H344.61ZM331.72 98.8397H330.72V99.8397H331.72V98.8397ZM331.72 36.2772V35.2772H330.72V36.2772H331.72ZM368.501 38.8553L368.065 39.7555L368.068 39.7569L368.501 38.8553ZM376.751 46.203L375.895 46.7198L375.897 46.7232L376.751 46.203ZM373.313 71.5116L373.958 72.2764L373.958 72.276L373.313 71.5116ZM344.61 66.3553H343.61V67.3553H344.61V66.3553ZM363.903 63.9491L363.239 63.2017L363.233 63.207L363.903 63.9491ZM356.427 46.7186L356.445 45.7188L356.436 45.7186H356.427V46.7186ZM344.61 46.7186V45.7186H343.61V46.7186H344.61ZM343.61 76.7968V98.8397H345.61V76.7968H343.61ZM344.61 97.8397H331.72V99.8397H344.61V97.8397ZM332.72 98.8397V36.2772H330.72V98.8397H332.72ZM331.72 37.2772H356.126V35.2772H331.72V37.2772ZM356.126 37.2772C360.701 37.2772 364.673 38.1138 368.065 39.7555L368.937 37.9552C365.225 36.1594 360.946 35.2772 356.126 35.2772V37.2772ZM368.068 39.7569C371.486 41.3975 374.083 43.7186 375.895 46.7198L377.607 45.6862C375.58 42.3281 372.677 39.7507 368.934 37.9538L368.068 39.7569ZM375.897 46.7232C377.712 49.7028 378.63 53.1146 378.63 56.9882H380.63C380.63 52.7836 379.629 49.0052 377.605 45.6828L375.897 46.7232ZM378.63 56.9882C378.63 62.8611 376.627 67.408 372.669 70.7472L373.958 72.276C378.422 68.511 380.63 63.3756 380.63 56.9882H378.63ZM372.669 70.7468C368.723 74.0717 363.179 75.7968 355.911 75.7968V77.7968C363.482 77.7968 369.54 75.9984 373.958 72.2764L372.669 70.7468ZM355.911 75.7968H344.61V77.7968H355.911V75.7968ZM344.61 67.3553H356.126V65.3553H344.61V67.3553ZM356.126 67.3553C359.678 67.3553 362.549 66.5201 364.574 64.6912L363.233 63.207C361.706 64.5864 359.392 65.3553 356.126 65.3553V67.3553ZM364.568 64.6965C366.634 62.8594 367.61 60.2667 367.61 57.0741H365.61C365.61 59.8398 364.782 61.8305 363.239 63.2017L364.568 64.6965ZM367.61 57.0741C367.61 53.7994 366.639 51.0584 364.627 48.95L363.18 50.331C364.777 52.0038 365.61 54.2186 365.61 57.0741H367.61ZM364.627 48.95C362.599 46.8257 359.83 45.7798 356.445 45.7188L356.409 47.7185C359.383 47.7721 361.598 48.674 363.18 50.331L364.627 48.95ZM356.427 45.7186H344.61V47.7186H356.427V45.7186ZM343.61 46.7186V66.3553H345.61V46.7186H343.61ZM400.813 98.8397V99.8397H401.813V98.8397H400.813ZM388.353 98.8397H387.353V99.8397H388.353V98.8397ZM388.353 32.8397V31.8397H387.353V32.8397H388.353ZM400.813 32.8397H401.813V31.8397H400.813V32.8397ZM400.813 97.8397H388.353V99.8397H400.813V97.8397ZM389.353 98.8397V32.8397H387.353V98.8397H389.353ZM388.353 33.8397H400.813V31.8397H388.353V33.8397ZM399.813 32.8397V98.8397H401.813V32.8397H399.813ZM438.024 98.8397L437.135 99.296L437.413 99.8397H438.024V98.8397ZM436.778 94.6718L437.766 94.5184L437.443 92.4339L436.034 94.0038L436.778 94.6718ZM413.704 95.746L413.042 96.495L413.045 96.4981L413.704 95.746ZM414.692 74.4335L414.109 73.6215L414.106 73.6236L414.692 74.4335ZM430.548 70.4374V69.4374L430.544 69.4374L430.548 70.4374ZM436.263 70.4374V71.4374H437.263V70.4374H436.263ZM434.587 62.6171L433.823 63.2623L433.831 63.272L434.587 62.6171ZM424.446 62.1874L423.806 61.4191L423.797 61.4268L424.446 62.1874ZM422.685 66.3124V67.3124H423.685V66.3124H422.685ZM410.267 66.3124H409.267V67.3124H410.267V66.3124ZM419.806 53.4647L420.196 54.3852L420.204 54.3821L419.806 53.4647ZM443.653 55.828L443 56.585L443.007 56.5909L443.653 55.828ZM448.724 88.0975H447.724L447.724 88.104L448.724 88.0975ZM450.571 98.1093H451.571V97.86L451.454 97.6398L450.571 98.1093ZM450.571 98.8397V99.8397H451.571V98.8397H450.571ZM432.825 88.9999L433.286 89.8876L433.292 89.8843L433.298 89.8809L432.825 88.9999ZM436.263 85.6913L437.142 86.1676L437.263 85.9447V85.6913H436.263ZM436.263 77.6991H437.263V76.6991H436.263V77.6991ZM421.696 84.1444L420.701 84.0515L420.699 84.0686L420.698 84.0857L421.696 84.1444ZM421.653 84.8749L420.655 84.8162L420.653 84.8455V84.8749H421.653ZM423.286 88.6991L423.964 87.9636L423.286 88.6991ZM438.914 98.3834C438.403 97.3874 438.013 96.1077 437.766 94.5184L435.79 94.8251C436.059 96.5587 436.5 98.0577 437.135 99.296L438.914 98.3834ZM436.034 94.0038C433.23 97.1282 429.598 98.6991 425.048 98.6991V100.699C430.122 100.699 434.311 98.9184 437.523 95.3397L436.034 94.0038ZM425.048 98.6991C420.7 98.6991 417.163 97.4473 414.363 94.9938L413.045 96.4981C416.261 99.3155 420.287 100.699 425.048 100.699V98.6991ZM414.367 94.997C411.604 92.5532 410.235 89.5039 410.235 85.7772H408.235C408.235 90.0714 409.846 93.668 413.042 96.495L414.367 94.997ZM410.235 85.7772C410.235 81.1347 411.929 77.6704 415.279 75.2433L414.106 73.6236C410.18 76.4673 408.235 80.5656 408.235 85.7772H410.235ZM415.276 75.2455C418.706 72.7803 423.753 71.4656 430.552 71.4374L430.544 69.4374C423.535 69.4665 418.012 70.8158 414.109 73.6215L415.276 75.2455ZM430.548 71.4374H436.263V69.4374H430.548V71.4374ZM437.263 70.4374V67.7733H435.263V70.4374H437.263ZM437.263 67.7733C437.263 65.4487 436.655 63.4764 435.343 61.9621L433.831 63.272C434.753 64.3359 435.263 65.8011 435.263 67.7733H437.263ZM435.351 61.9719C434.004 60.377 431.934 59.6835 429.388 59.6835V61.6835C431.596 61.6835 432.993 62.279 433.823 63.2622L435.351 61.9719ZM429.388 59.6835C427.141 59.6835 425.241 60.2231 423.806 61.4192L425.086 62.9556C426.057 62.1465 427.452 61.6835 429.388 61.6835V59.6835ZM423.797 61.4268C422.369 62.6457 421.685 64.3154 421.685 66.3124H423.685C423.685 64.8145 424.174 63.7343 425.096 62.9479L423.797 61.4268ZM422.685 65.3124H410.267V67.3124H422.685V65.3124ZM411.267 66.3124C411.267 63.8417 412.024 61.5531 413.568 59.4228L411.949 58.2488C410.171 60.7019 409.267 63.3976 409.267 66.3124H411.267ZM413.568 59.4228C415.107 57.3012 417.299 55.6151 420.196 54.3852L419.415 52.5442C416.239 53.8924 413.734 55.7871 411.949 58.2488L413.568 59.4228ZM420.204 54.3821C423.098 53.1261 426.369 52.4882 430.032 52.4882V50.4882C426.133 50.4882 422.586 51.1679 419.408 52.5474L420.204 54.3821ZM430.032 52.4882C435.594 52.4882 439.878 53.8899 443 56.585L444.307 55.071C440.726 51.9796 435.929 50.4882 430.032 50.4882V52.4882ZM443.007 56.5909C446.122 59.2312 447.724 62.9681 447.724 67.9452H449.724C449.724 62.4952 447.945 58.1539 444.3 55.0651L443.007 56.5909ZM447.724 67.9452V88.0975H449.724V67.9452H447.724ZM447.724 88.104C447.753 92.5759 448.373 96.1047 449.688 98.5787L451.454 97.6398C450.363 95.5878 449.752 92.4421 449.724 88.091L447.724 88.104ZM449.571 98.1093V98.8397H451.571V98.1093H449.571ZM450.571 97.8397H438.024V99.8397H450.571V97.8397ZM427.755 91.203C429.74 91.203 431.589 90.7673 433.286 89.8876L432.365 88.1121C430.968 88.8366 429.437 89.203 427.755 89.203V91.203ZM433.298 89.8809C434.995 88.9695 436.293 87.7348 437.142 86.1676L435.383 85.215C434.743 86.3978 433.749 87.3688 432.352 88.1189L433.298 89.8809ZM437.263 85.6913V77.6991H435.263V85.6913H437.263ZM436.263 76.6991H431.622V78.6991H436.263V76.6991ZM431.622 76.6991C428.423 76.6991 425.819 77.2478 423.934 78.4717C421.997 79.7296 420.926 81.6313 420.701 84.0515L422.692 84.2373C422.867 82.3606 423.652 81.0397 425.023 80.1491C426.447 79.2246 428.605 78.6991 431.622 78.6991V76.6991ZM420.698 84.0857L420.655 84.8162L422.652 84.9336L422.695 84.2031L420.698 84.0857ZM420.653 84.8749C420.653 86.687 421.304 88.2332 422.609 89.4346L423.964 87.9636C423.091 87.1597 422.653 86.1566 422.653 84.8749H420.653ZM422.609 89.4346C423.929 90.6506 425.685 91.203 427.755 91.203V89.203C426.043 89.203 424.821 88.7528 423.964 87.9636L422.609 89.4346ZM469.692 52.3475L470.69 52.2757L470.623 51.3475H469.692V52.3475ZM470.079 57.7186L469.082 57.7904L469.265 60.337L470.86 58.3433L470.079 57.7186ZM494.442 55.828L495.211 55.1886L494.442 55.828ZM498.138 68.8046H499.138L499.138 68.7946L498.138 68.8046ZM498.138 98.8397V99.8397H499.138V98.8397H498.138ZM485.72 98.8397H484.72V99.8397H485.72V98.8397ZM484.001 63.3905L483.277 64.0802L483.285 64.0888L484.001 63.3905ZM470.423 66.0546L469.56 65.5486L469.423 65.7829V66.0546H470.423ZM470.423 98.8397V99.8397H471.423V98.8397H470.423ZM458.005 98.8397H457.005V99.8397H458.005V98.8397ZM458.005 52.3475V51.3475H457.005V52.3475H458.005ZM468.695 52.4193L469.082 57.7904L471.077 57.6468L470.69 52.2757L468.695 52.4193ZM470.86 58.3433C473.982 54.4403 478.143 52.4882 483.442 52.4882V50.4882C477.57 50.4882 472.822 52.6897 469.298 57.0939L470.86 58.3433ZM483.442 52.4882C488.171 52.4882 491.512 53.8689 493.674 56.4674L495.211 55.1886C492.56 52.0007 488.568 50.4882 483.442 50.4882V52.4882ZM493.674 56.4674C495.872 59.1112 497.082 63.1706 497.138 68.8145L499.138 68.7946C499.079 62.9229 497.825 58.3312 495.211 55.1886L493.674 56.4674ZM497.138 68.8046V98.8397H499.138V68.8046H497.138ZM498.138 97.8397H485.72V99.8397H498.138V97.8397ZM486.72 98.8397V69.1053H484.72V98.8397H486.72ZM486.72 69.1053C486.72 66.3604 486.129 64.1393 484.717 62.6922L483.285 64.0888C484.165 64.9907 484.72 66.5795 484.72 69.1053H486.72ZM484.725 62.7008C483.303 61.2077 481.064 60.5858 478.286 60.5858V62.5858C480.836 62.5858 482.407 63.167 483.277 64.0802L484.725 62.7008ZM478.286 60.5858C474.442 60.5858 471.49 62.2589 469.56 65.5486L471.285 66.5605C472.851 63.8918 475.141 62.5858 478.286 62.5858V60.5858ZM469.423 66.0546V98.8397H471.423V66.0546H469.423ZM470.423 97.8397H458.005V99.8397H470.423V97.8397ZM459.005 98.8397V52.3475H457.005V98.8397H459.005ZM458.005 53.3475H469.692V51.3475H458.005V53.3475Z" fill="#FF9900"/>
</g>
<g filter="url(#filter3_d)">
<g filter="url(#filter4_d)">
<rect x="515" y="46" width="432" height="111" fill="#FF9900"/>
<rect x="515.5" y="46.5" width="431" height="110" stroke="#FF9900"/>
</g>
<path d="M557.564 112.277L558.767 120.527L560.529 113.094L572.904 69.4375H579.865L591.939 113.094L593.658 120.656L594.99 112.234L604.701 69.4375H612.994L597.826 132H590.306L577.416 86.4102L576.427 81.6406L575.439 86.4102L562.076 132H554.556L539.431 69.4375H547.681L557.564 112.277ZM638.861 132.859C632.559 132.859 627.431 130.797 623.478 126.672C619.525 122.518 617.548 116.975 617.548 110.043V108.582C617.548 103.97 618.422 99.8594 620.17 96.25C621.946 92.612 624.409 89.776 627.56 87.7422C630.74 85.6797 634.177 84.6484 637.873 84.6484C643.917 84.6484 648.615 86.6393 651.966 90.6211C655.318 94.6029 656.994 100.303 656.994 107.723V111.031H625.498C625.612 115.615 626.944 119.324 629.494 122.16C632.072 124.967 635.338 126.371 639.291 126.371C642.098 126.371 644.476 125.798 646.423 124.652C648.371 123.507 650.076 121.988 651.537 120.098L656.392 123.879C652.496 129.866 646.653 132.859 638.861 132.859ZM637.873 91.1797C634.664 91.1797 631.972 92.3542 629.795 94.7031C627.617 97.0234 626.271 100.289 625.755 104.5H649.045V103.898C648.815 99.8594 647.727 96.737 645.779 94.5312C643.831 92.2969 641.196 91.1797 637.873 91.1797ZM689.306 132V69.4375H706.966C712.409 69.4375 717.222 70.6406 721.404 73.0469C725.586 75.4531 728.809 78.8763 731.072 83.3164C733.364 87.7565 734.524 92.8555 734.552 98.6133V102.609C734.552 108.51 733.407 113.681 731.115 118.121C728.852 122.561 725.601 125.97 721.361 128.348C717.15 130.725 712.237 131.943 706.623 132H689.306ZM697.556 76.2266V125.254H706.236C712.595 125.254 717.537 123.277 721.06 119.324C724.612 115.371 726.388 109.742 726.388 102.438V98.7852C726.388 91.681 724.713 86.1667 721.361 82.2422C718.038 78.2891 713.311 76.2839 707.181 76.2266H697.556ZM795.181 102.738C795.181 108.868 794.15 114.225 792.088 118.809C790.025 123.363 787.103 126.844 783.322 129.25C779.541 131.656 775.129 132.859 770.088 132.859C765.16 132.859 760.792 131.656 756.982 129.25C753.172 126.815 750.207 123.363 748.088 118.895C745.996 114.397 744.922 109.198 744.865 103.297V98.7852C744.865 92.7695 745.91 87.4557 748.002 82.8438C750.093 78.2318 753.043 74.7083 756.853 72.2734C760.692 69.8099 765.075 68.5781 770.002 68.5781C775.015 68.5781 779.426 69.7956 783.236 72.2305C787.075 74.6367 790.025 78.1458 792.088 82.7578C794.15 87.3411 795.181 92.6836 795.181 98.7852V102.738ZM786.974 98.6992C786.974 91.2799 785.485 85.5938 782.505 81.6406C779.526 77.6589 775.358 75.668 770.002 75.668C764.788 75.668 760.677 77.6589 757.67 81.6406C754.69 85.5938 753.158 91.0938 753.072 98.1406V102.738C753.072 109.928 754.576 115.586 757.584 119.711C760.62 123.807 764.788 125.855 770.088 125.855C775.416 125.855 779.541 123.922 782.463 120.055C785.384 116.159 786.888 110.587 786.974 103.34V98.6992ZM838.236 132H829.986V69.4375H838.236V132ZM895.298 76.2266H875.189V132H866.982V76.2266H846.916V69.4375H895.298V76.2266ZM912.228 114.34H905.052L904.494 69.4375H912.83L912.228 114.34ZM904.193 128.004C904.193 126.715 904.58 125.641 905.353 124.781C906.155 123.893 907.33 123.449 908.877 123.449C910.423 123.449 911.598 123.893 912.4 124.781C913.202 125.641 913.603 126.715 913.603 128.004C913.603 129.293 913.202 130.367 912.4 131.227C911.598 132.057 910.423 132.473 908.877 132.473C907.33 132.473 906.155 132.057 905.353 131.227C904.58 130.367 904.193 129.293 904.193 128.004Z" fill="#363636"/>
<path d="M557.564 112.277L558.554 112.133L558.548 112.092L558.538 112.053L557.564 112.277ZM558.767 120.527L557.778 120.672L559.74 120.758L558.767 120.527ZM560.529 113.094L559.567 112.821L559.561 112.842L559.556 112.863L560.529 113.094ZM572.904 69.4375V68.4375H572.148L571.942 69.1648L572.904 69.4375ZM579.865 69.4375L580.829 69.1709L580.626 68.4375H579.865V69.4375ZM591.939 113.094L592.914 112.872L592.909 112.85L592.903 112.827L591.939 113.094ZM593.658 120.656L592.683 120.878L594.646 120.812L593.658 120.656ZM594.99 112.234L594.015 112.013L594.007 112.045L594.002 112.078L594.99 112.234ZM604.701 69.4375V68.4375H603.902L603.726 69.2162L604.701 69.4375ZM612.994 69.4375L613.966 69.6731L614.265 68.4375H612.994V69.4375ZM597.826 132V133H598.612L598.798 132.236L597.826 132ZM590.306 132L589.344 132.272L589.55 133H590.306V132ZM577.416 86.4102L576.436 86.6131L576.444 86.6479L576.453 86.6822L577.416 86.4102ZM576.427 81.6406L577.407 81.4377H575.448L576.427 81.6406ZM575.439 86.4102L576.399 86.6914L576.41 86.6526L576.418 86.6131L575.439 86.4102ZM562.076 132V133H562.825L563.035 132.281L562.076 132ZM554.556 132L553.584 132.235L553.769 133H554.556V132ZM539.431 69.4375V68.4375H538.161L538.459 69.6725L539.431 69.4375ZM547.681 69.4375L548.656 69.2127L548.477 68.4375H547.681V69.4375ZM556.575 112.422L557.778 120.672L559.757 120.383L558.554 112.133L556.575 112.422ZM559.74 120.758L561.502 113.324L559.556 112.863L557.794 120.297L559.74 120.758ZM561.491 113.366L573.866 69.7102L571.942 69.1648L559.567 112.821L561.491 113.366ZM572.904 70.4375H579.865V68.4375H572.904V70.4375ZM578.901 69.7041L590.975 113.36L592.903 112.827L580.829 69.1709L578.901 69.7041ZM590.964 113.315L592.683 120.878L594.633 120.435L592.914 112.872L590.964 113.315ZM594.646 120.812L595.978 112.391L594.002 112.078L592.67 120.5L594.646 120.812ZM595.965 112.456L605.676 69.6588L603.726 69.2162L594.015 112.013L595.965 112.456ZM604.701 70.4375H612.994V68.4375H604.701V70.4375ZM612.022 69.2019L596.854 131.764L598.798 132.236L613.966 69.6731L612.022 69.2019ZM597.826 131H590.306V133H597.826V131ZM591.269 131.728L578.378 86.1381L576.453 86.6822L589.344 132.272L591.269 131.728ZM578.395 86.2073L577.407 81.4377L575.448 81.8435L576.436 86.6131L578.395 86.2073ZM575.448 81.4377L574.46 86.2073L576.418 86.6131L577.407 81.8435L575.448 81.4377ZM574.479 86.1289L561.116 131.719L563.035 132.281L576.399 86.6914L574.479 86.1289ZM562.076 131H554.556V133H562.076V131ZM555.528 131.765L540.403 69.2025L538.459 69.6725L553.584 132.235L555.528 131.765ZM539.431 70.4375H547.681V68.4375H539.431V70.4375ZM546.707 69.6623L556.59 112.502L558.538 112.053L548.656 69.2127L546.707 69.6623ZM623.478 126.672L622.754 127.361L622.756 127.364L623.478 126.672ZM620.17 96.25L619.271 95.8113L619.269 95.8143L620.17 96.25ZM627.56 87.7422L628.102 88.5824L628.104 88.5811L627.56 87.7422ZM651.966 90.6211L651.201 91.2651L651.966 90.6211ZM656.994 111.031V112.031H657.994V111.031H656.994ZM625.498 111.031V110.031H624.472L624.498 111.056L625.498 111.031ZM629.494 122.16L628.75 122.829L628.757 122.837L629.494 122.16ZM646.423 124.652L645.916 123.79L646.423 124.652ZM651.537 120.098L652.151 119.309L651.359 118.692L650.745 119.486L651.537 120.098ZM656.392 123.879L657.23 124.424L657.731 123.654L657.007 123.09L656.392 123.879ZM629.795 94.7031L630.524 95.3874L630.528 95.3829L629.795 94.7031ZM625.755 104.5L624.763 104.378L624.626 105.5H625.755V104.5ZM649.045 104.5V105.5H650.045V104.5H649.045ZM649.045 103.898H650.045V103.87L650.043 103.842L649.045 103.898ZM645.779 94.5312L645.025 95.1884L645.029 95.1932L645.779 94.5312ZM638.861 131.859C632.8 131.859 627.944 129.887 624.2 125.98L622.756 127.364C626.918 131.707 632.317 133.859 638.861 133.859V131.859ZM624.203 125.982C620.462 122.052 618.548 116.775 618.548 110.043H616.548C616.548 117.175 618.588 122.984 622.754 127.361L624.203 125.982ZM618.548 110.043V108.582H616.548V110.043H618.548ZM618.548 108.582C618.548 104.098 619.397 100.14 621.07 96.6857L619.269 95.8143C617.447 99.5785 616.548 103.842 616.548 108.582H618.548ZM621.068 96.6887C622.771 93.201 625.117 90.5095 628.102 88.5824L627.018 86.902C623.702 89.0425 621.12 92.023 619.271 95.8113L621.068 96.6887ZM628.104 88.5811C631.126 86.6209 634.376 85.6484 637.873 85.6484V83.6484C633.979 83.6484 630.353 84.7385 627.016 86.9032L628.104 88.5811ZM637.873 85.6484C643.675 85.6484 648.071 87.5466 651.201 91.2651L652.731 89.9771C649.158 85.732 644.159 83.6484 637.873 83.6484V85.6484ZM651.201 91.2651C654.348 95.0033 655.994 100.44 655.994 107.723H657.994C657.994 100.166 656.288 94.2025 652.731 89.9771L651.201 91.2651ZM655.994 107.723V111.031H657.994V107.723H655.994ZM656.994 110.031H625.498V112.031H656.994V110.031ZM624.498 111.056C624.617 115.827 626.011 119.781 628.75 122.829L630.237 121.492C627.878 118.867 626.607 115.402 626.497 111.006L624.498 111.056ZM628.757 122.837C631.533 125.859 635.069 127.371 639.291 127.371V125.371C635.606 125.371 632.611 124.076 630.23 121.484L628.757 122.837ZM639.291 127.371C642.233 127.371 644.796 126.77 646.93 125.514L645.916 123.79C644.155 124.826 641.962 125.371 639.291 125.371V127.371ZM646.93 125.514C648.994 124.3 650.794 122.695 652.328 120.709L650.745 119.486C649.358 121.282 647.748 122.713 645.916 123.79L646.93 125.514ZM650.922 120.887L655.778 124.668L657.007 123.09L652.151 119.309L650.922 120.887ZM655.554 123.333C651.862 129.008 646.351 131.859 638.861 131.859V133.859C646.954 133.859 653.131 130.724 657.23 124.424L655.554 123.333ZM637.873 90.1797C634.387 90.1797 631.428 91.4698 629.061 94.0234L630.528 95.3829C632.515 93.2385 634.942 92.1797 637.873 92.1797V90.1797ZM629.065 94.0189C626.701 96.5383 625.296 100.026 624.763 104.378L626.748 104.622C627.246 100.552 628.534 97.5085 630.524 95.3874L629.065 94.0189ZM625.755 105.5H649.045V103.5H625.755V105.5ZM650.045 104.5V103.898H648.045V104.5H650.045ZM650.043 103.842C649.806 99.6617 648.672 96.2963 646.528 93.8693L645.029 95.1932C646.782 97.1776 647.825 100.057 648.046 103.955L650.043 103.842ZM646.533 93.8741C644.371 91.3941 641.446 90.1797 637.873 90.1797V92.1797C640.946 92.1797 643.291 93.1997 645.025 95.1884L646.533 93.8741ZM689.306 132H688.306V133H689.306V132ZM689.306 69.4375V68.4375H688.306V69.4375H689.306ZM731.072 83.3164L730.181 83.7705L730.183 83.775L731.072 83.3164ZM734.552 98.6133L735.552 98.6133L735.552 98.6083L734.552 98.6133ZM731.115 118.121L730.226 117.662L730.224 117.667L731.115 118.121ZM721.361 128.348L720.872 127.475L720.869 127.477L721.361 128.348ZM706.623 132V133L706.633 133L706.623 132ZM697.556 76.2266V75.2266H696.556V76.2266H697.556ZM697.556 125.254H696.556V126.254H697.556V125.254ZM721.06 119.324L720.316 118.656L720.314 118.659L721.06 119.324ZM721.361 82.2422L720.595 82.8857L720.601 82.8916L721.361 82.2422ZM707.181 76.2266L707.191 75.2266H707.181V76.2266ZM690.306 132V69.4375H688.306V132H690.306ZM689.306 70.4375H706.966V68.4375H689.306V70.4375ZM706.966 70.4375C712.257 70.4375 716.893 71.6054 720.905 73.9137L721.903 72.1801C717.55 69.6758 712.561 68.4375 706.966 68.4375V70.4375ZM720.905 73.9137C724.914 76.22 728.003 79.4971 730.181 83.7705L731.963 82.8623C729.615 78.2555 726.259 74.6863 721.903 72.1801L720.905 73.9137ZM730.183 83.775C732.392 88.0549 733.524 92.9942 733.552 98.6183L735.552 98.6083C735.523 92.7167 734.335 87.4582 731.961 82.8578L730.183 83.775ZM733.552 98.6133V102.609H735.552V98.6133H733.552ZM733.552 102.609C733.552 108.38 732.433 113.388 730.226 117.662L732.003 118.58C734.38 113.974 735.552 108.641 735.552 102.609H733.552ZM730.224 117.667C728.048 121.936 724.935 125.197 720.872 127.475L721.85 129.22C726.267 126.743 729.656 123.187 732.006 118.575L730.224 117.667ZM720.869 127.477C716.828 129.759 712.086 130.944 706.612 131L706.633 133C712.389 132.941 717.473 131.692 721.853 129.218L720.869 127.477ZM706.623 131H689.306V133H706.623V131ZM696.556 76.2266V125.254H698.556V76.2266H696.556ZM697.556 126.254H706.236V124.254H697.556V126.254ZM706.236 126.254C712.818 126.254 718.056 124.198 721.807 119.99L720.314 118.659C717.018 122.357 712.373 124.254 706.236 124.254V126.254ZM721.804 119.993C725.574 115.797 727.388 109.896 727.388 102.438H725.388C725.388 109.588 723.65 114.945 720.316 118.656L721.804 119.993ZM727.388 102.438V98.7852H725.388V102.438H727.388ZM727.388 98.7852C727.388 91.5324 725.677 85.7564 722.121 81.5928L720.601 82.8916C723.748 86.577 725.388 91.8296 725.388 98.7852H727.388ZM722.126 81.5987C718.58 77.3798 713.553 75.2861 707.191 75.2266L707.172 77.2265C713.07 77.2816 717.496 79.1984 720.595 82.8856L722.126 81.5987ZM707.181 75.2266H697.556V77.2266H707.181V75.2266ZM792.088 118.809L792.998 119.221L792.999 119.219L792.088 118.809ZM756.982 129.25L756.444 130.093L756.448 130.095L756.982 129.25ZM748.088 118.895L747.181 119.316L747.184 119.323L748.088 118.895ZM744.865 103.297H743.865L743.865 103.307L744.865 103.297ZM756.853 72.2734L757.392 73.1161L757.393 73.115L756.853 72.2734ZM783.236 72.2305L782.697 73.0731L782.705 73.0778L783.236 72.2305ZM792.088 82.7578L791.175 83.1661L791.176 83.1682L792.088 82.7578ZM782.505 81.6406L781.705 82.2397L781.707 82.2425L782.505 81.6406ZM757.67 81.6406L756.872 81.0379L756.871 81.0388L757.67 81.6406ZM753.072 98.1406L752.072 98.1284V98.1406H753.072ZM757.584 119.711L756.776 120.3L756.78 120.306L757.584 119.711ZM782.463 120.055L783.26 120.658L783.263 120.655L782.463 120.055ZM786.974 103.34L787.974 103.352V103.34H786.974ZM794.181 102.738C794.181 108.757 793.169 113.969 791.176 118.398L792.999 119.219C795.131 114.482 796.181 108.98 796.181 102.738H794.181ZM791.177 118.396C789.185 122.795 786.384 126.116 782.785 128.406L783.859 130.094C787.823 127.571 790.865 123.932 792.998 119.221L791.177 118.396ZM782.785 128.406C779.184 130.698 774.963 131.859 770.088 131.859V133.859C775.295 133.859 779.898 132.614 783.859 130.094L782.785 128.406ZM770.088 131.859C765.331 131.859 761.151 130.7 757.516 128.405L756.448 130.095C760.433 132.612 764.99 133.859 770.088 133.859V131.859ZM757.521 128.407C753.883 126.083 751.038 122.782 748.991 118.466L747.184 119.323C749.376 123.945 752.461 127.547 756.444 130.093L757.521 128.407ZM748.994 118.473C746.973 114.127 745.921 109.072 745.865 103.287L743.865 103.307C743.923 109.323 745.019 114.667 747.181 119.316L748.994 118.473ZM745.865 103.297V98.7852H743.865V103.297H745.865ZM745.865 98.7852C745.865 92.8856 746.89 87.7169 748.912 83.2567L747.091 82.4308C744.931 87.1946 743.865 92.6535 743.865 98.7852H745.865ZM748.912 83.2567C750.933 78.7991 753.764 75.4345 757.392 73.1161L756.315 71.4308C752.323 73.9821 749.252 77.6644 747.091 82.4308L748.912 83.2567ZM757.393 73.115C761.058 70.7632 765.25 69.5781 770.002 69.5781V67.5781C764.899 67.5781 760.326 68.8566 756.313 71.4319L757.393 73.115ZM770.002 69.5781C774.845 69.5781 779.066 70.7519 782.697 73.0731L783.774 71.3879C779.787 68.8392 775.184 67.5781 770.002 67.5781V69.5781ZM782.705 73.0778C786.356 75.3668 789.183 78.7134 791.175 83.1661L793 82.3496C790.867 77.5783 787.793 73.9066 783.767 71.3832L782.705 73.0778ZM791.176 83.1682C793.169 87.5979 794.181 92.7954 794.181 98.7852H796.181C796.181 92.5718 795.131 87.0843 792.999 82.3474L791.176 83.1682ZM794.181 98.7852V102.738H796.181V98.7852H794.181ZM787.974 98.6992C787.974 91.1658 786.465 85.2327 783.304 81.0388L781.707 82.2425C784.505 85.9548 785.974 91.3941 785.974 98.6992H787.974ZM783.306 81.0415C780.122 76.7856 775.645 74.668 770.002 74.668V76.668C775.071 76.668 778.931 78.5321 781.705 82.2397L783.306 81.0415ZM770.002 74.668C764.491 74.668 760.078 76.7931 756.872 81.0379L758.467 82.2434C761.277 78.5246 765.085 76.668 770.002 76.668V74.668ZM756.871 81.0388C753.719 85.2205 752.159 90.9559 752.072 98.1284L754.072 98.1528C754.156 91.2316 755.661 85.967 758.468 82.2425L756.871 81.0388ZM752.072 98.1406V102.738H754.072V98.1406H752.072ZM752.072 102.738C752.072 110.056 753.601 115.947 756.776 120.3L758.392 119.122C755.55 115.225 754.072 109.801 754.072 102.738H752.072ZM756.78 120.306C760.014 124.669 764.486 126.855 770.088 126.855V124.855C765.09 124.855 761.226 122.946 758.387 119.115L756.78 120.306ZM770.088 126.855C775.693 126.855 780.129 124.802 783.26 120.658L781.665 119.452C778.952 123.042 775.138 124.855 770.088 124.855V126.855ZM783.263 120.655C786.36 116.524 787.887 110.713 787.974 103.352L785.974 103.328C785.89 110.462 784.408 115.793 781.663 119.455L783.263 120.655ZM787.974 103.34V98.6992H785.974V103.34H787.974ZM838.236 132V133H839.236V132H838.236ZM829.986 132H828.986V133H829.986V132ZM829.986 69.4375V68.4375H828.986V69.4375H829.986ZM838.236 69.4375H839.236V68.4375H838.236V69.4375ZM838.236 131H829.986V133H838.236V131ZM830.986 132V69.4375H828.986V132H830.986ZM829.986 70.4375H838.236V68.4375H829.986V70.4375ZM837.236 69.4375V132H839.236V69.4375H837.236ZM895.298 76.2266V77.2266H896.298V76.2266H895.298ZM875.189 76.2266V75.2266H874.189V76.2266H875.189ZM875.189 132V133H876.189V132H875.189ZM866.982 132H865.982V133H866.982V132ZM866.982 76.2266H867.982V75.2266H866.982V76.2266ZM846.916 76.2266H845.916V77.2266H846.916V76.2266ZM846.916 69.4375V68.4375H845.916V69.4375H846.916ZM895.298 69.4375H896.298V68.4375H895.298V69.4375ZM895.298 75.2266H875.189V77.2266H895.298V75.2266ZM874.189 76.2266V132H876.189V76.2266H874.189ZM875.189 131H866.982V133H875.189V131ZM867.982 132V76.2266H865.982V132H867.982ZM866.982 75.2266H846.916V77.2266H866.982V75.2266ZM847.916 76.2266V69.4375H845.916V76.2266H847.916ZM846.916 70.4375H895.298V68.4375H846.916V70.4375ZM894.298 69.4375V76.2266H896.298V69.4375H894.298ZM912.228 114.34V115.34H913.215L913.228 114.353L912.228 114.34ZM905.052 114.34L904.052 114.352L904.065 115.34H905.052V114.34ZM904.494 69.4375V68.4375H903.481L903.494 69.4499L904.494 69.4375ZM912.83 69.4375L913.83 69.4509L913.843 68.4375H912.83V69.4375ZM905.353 124.781L904.611 124.111L904.61 124.112L905.353 124.781ZM912.4 124.781L911.658 125.452L911.663 125.458L911.669 125.464L912.4 124.781ZM912.4 131.227L913.119 131.921L913.125 131.915L913.131 131.909L912.4 131.227ZM905.353 131.227L904.61 131.896L904.622 131.909L904.634 131.921L905.353 131.227ZM912.228 113.34H905.052V115.34H912.228V113.34ZM906.052 114.327L905.494 69.4251L903.494 69.4499L904.052 114.352L906.052 114.327ZM904.494 70.4375H912.83V68.4375H904.494V70.4375ZM911.83 69.4241L911.228 114.326L913.228 114.353L913.83 69.4509L911.83 69.4241ZM905.193 128.004C905.193 126.931 905.508 126.104 906.096 125.45L904.61 124.112C903.652 125.177 903.193 126.498 903.193 128.004H905.193ZM906.095 125.452C906.656 124.831 907.525 124.449 908.877 124.449V122.449C907.135 122.449 905.655 122.956 904.611 124.111L906.095 125.452ZM908.877 124.449C910.228 124.449 911.097 124.831 911.658 125.452L913.142 124.111C912.099 122.956 910.618 122.449 908.877 122.449V124.449ZM911.669 125.464C912.281 126.119 912.603 126.942 912.603 128.004H914.603C914.603 126.488 914.123 125.162 913.131 124.099L911.669 125.464ZM912.603 128.004C912.603 129.066 912.281 129.889 911.669 130.544L913.131 131.909C914.123 130.846 914.603 129.52 914.603 128.004H912.603ZM911.681 130.532C911.124 131.108 910.248 131.473 908.877 131.473V133.473C910.599 133.473 912.072 133.007 913.119 131.921L911.681 130.532ZM908.877 131.473C907.505 131.473 906.629 131.108 906.073 130.532L904.634 131.921C905.682 133.007 907.154 133.473 908.877 133.473V131.473ZM906.096 130.558C905.508 129.903 905.193 129.077 905.193 128.004H903.193C903.193 129.509 903.652 130.831 904.61 131.896L906.096 130.558Z" fill="#363636"/>
</g>
<g filter="url(#filter5_d)">
<rect x="683" y="142" width="237" height="7" rx="2" fill="#C9C9C9"/>
</g>
</g>
<defs>
<filter id="filter0_d" x="0" y="0" width="1136" height="199" filterUnits="userSpaceOnUse" color-interpolation-filters="sRGB">
<feFlood flood-opacity="0" result="BackgroundImageFix"/>
<feColorMatrix in="SourceAlpha" type="matrix" values="0 0 0 0 0 0 0 0 0 0 0 0 0 0 0 0 0 0 127 0"/>
<feOffset dy="4"/>
<feGaussianBlur stdDeviation="2"/>
<feColorMatrix type="matrix" values="0 0 0 0 0 0 0 0 0 0 0 0 0 0 0 0 0 0 0.25 0"/>
<feBlend mode="normal" in2="BackgroundImageFix" result="effect1_dropShadow"/>
<feBlend mode="normal" in="SourceGraphic" in2="effect1_dropShadow" result="shape"/>
</filter>
<filter id="filter1_d" x="185" y="11" width="440" height="118.573" filterUnits="userSpaceOnUse" color-interpolation-filters="sRGB">
<feFlood flood-opacity="0" result="BackgroundImageFix"/>
<feColorMatrix in="SourceAlpha" type="matrix" values="0 0 0 0 0 0 0 0 0 0 0 0 0 0 0 0 0 0 127 0"/>
<feOffset dy="4"/>
<feGaussianBlur stdDeviation="2"/>
<feColorMatrix type="matrix" values="0 0 0 0 0 0 0 0 0 0 0 0 0 0 0 0 0 0 0.25 0"/>
<feBlend mode="normal" in2="BackgroundImageFix" result="effect1_dropShadow"/>
<feBlend mode="normal" in="SourceGraphic" in2="effect1_dropShadow" result="shape"/>
</filter>
<filter id="filter2_d" x="185" y="11" width="440" height="118.573" filterUnits="userSpaceOnUse" color-interpolation-filters="sRGB">
<feFlood flood-opacity="0" result="BackgroundImageFix"/>
<feColorMatrix in="SourceAlpha" type="matrix" values="0 0 0 0 0 0 0 0 0 0 0 0 0 0 0 0 0 0 127 0"/>
<feOffset dy="4"/>
<feGaussianBlur stdDeviation="2"/>
<feColorMatrix type="matrix" values="0 0 0 0 0 0 0 0 0 0 0 0 0 0 0 0 0 0 0.25 0"/>
<feBlend mode="normal" in2="BackgroundImageFix" result="effect1_dropShadow"/>
<feBlend mode="normal" in="SourceGraphic" in2="effect1_dropShadow" result="shape"/>
</filter>
<filter id="filter3_d" x="511" y="46" width="440" height="119" filterUnits="userSpaceOnUse" color-interpolation-filters="sRGB">
<feFlood flood-opacity="0" result="BackgroundImageFix"/>
<feColorMatrix in="SourceAlpha" type="matrix" values="0 0 0 0 0 0 0 0 0 0 0 0 0 0 0 0 0 0 127 0"/>
<feOffset dy="4"/>
<feGaussianBlur stdDeviation="2"/>
<feColorMatrix type="matrix" values="0 0 0 0 0 0 0 0 0 0 0 0 0 0 0 0 0 0 0.25 0"/>
<feBlend mode="normal" in2="BackgroundImageFix" result="effect1_dropShadow"/>
<feBlend mode="normal" in="SourceGraphic" in2="effect1_dropShadow" result="shape"/>
</filter>
<filter id="filter4_d" x="511" y="46" width="440" height="119" filterUnits="userSpaceOnUse" color-interpolation-filters="sRGB">
<feFlood flood-opacity="0" result="BackgroundImageFix"/>
<feColorMatrix in="SourceAlpha" type="matrix" values="0 0 0 0 0 0 0 0 0 0 0 0 0 0 0 0 0 0 127 0"/>
<feOffset dy="4"/>
<feGaussianBlur stdDeviation="2"/>
<feColorMatrix type="matrix" values="0 0 0 0 0 0 0 0 0 0 0 0 0 0 0 0 0 0 0.25 0"/>
<feBlend mode="normal" in2="BackgroundImageFix" result="effect1_dropShadow"/>
<feBlend mode="normal" in="SourceGraphic" in2="effect1_dropShadow" result="shape"/>
</filter>
<filter id="filter5_d" x="679" y="142" width="245" height="15" filterUnits="userSpaceOnUse" color-interpolation-filters="sRGB">
<feFlood flood-opacity="0" result="BackgroundImageFix"/>
<feColorMatrix in="SourceAlpha" type="matrix" values="0 0 0 0 0 0 0 0 0 0 0 0 0 0 0 0 0 0 127 0"/>
<feOffset dy="4"/>
<feGaussianBlur stdDeviation="2"/>
<feColorMatrix type="matrix" values="0 0 0 0 0 0 0 0 0 0 0 0 0 0 0 0 0 0 0.25 0"/>
<feBlend mode="normal" in2="BackgroundImageFix" result="effect1_dropShadow"/>
<feBlend mode="normal" in="SourceGraphic" in2="effect1_dropShadow" result="shape"/>
</filter>
</defs>
</svg>
