<svg width="300" height="84" viewBox="0 0 300 84" fill="none" xmlns="http://www.w3.org/2000/svg">
<rect width="300" height="84" fill="#555555"/>
<path d="M46.3746 51.1562L50.9684 26.875H57.9762L50.4059 61H43.3278L37.7731 38.1719L32.2184 61H25.1403L17.57 26.875H24.5778L29.195 51.1094L34.82 26.875H40.7731L46.3746 51.1562ZM72.2731 61.4688C68.5543 61.4688 65.5231 60.3281 63.1793 58.0469C60.8512 55.7656 59.6871 52.7266 59.6871 48.9297V48.2734C59.6871 45.7266 60.1793 43.4531 61.1637 41.4531C62.1481 39.4375 63.5387 37.8906 65.3356 36.8125C67.1481 35.7188 69.2106 35.1719 71.5231 35.1719C74.9918 35.1719 77.7184 36.2656 79.7028 38.4531C81.7028 40.6406 82.7028 43.7422 82.7028 47.7578V50.5234H66.5543C66.7731 52.1797 67.4293 53.5078 68.5231 54.5078C69.6325 55.5078 71.0309 56.0078 72.7184 56.0078C75.3278 56.0078 77.3668 55.0625 78.8356 53.1719L82.1637 56.8984C81.1481 58.3359 79.7731 59.4609 78.0387 60.2734C76.3043 61.0703 74.3825 61.4688 72.2731 61.4688ZM71.4996 40.6562C70.1559 40.6562 69.0621 41.1094 68.2184 42.0156C67.3903 42.9219 66.859 44.2188 66.6246 45.9062H76.0465V45.3672C76.0153 43.8672 75.609 42.7109 74.8278 41.8984C74.0465 41.0703 72.9371 40.6562 71.4996 40.6562ZM94.0465 48.9766V61H87.0153V26.875H100.328C102.89 26.875 105.14 27.3438 107.078 28.2812C109.031 29.2188 110.531 30.5547 111.578 32.2891C112.625 34.0078 113.148 35.9688 113.148 38.1719C113.148 41.5156 112 44.1562 109.703 46.0938C107.422 48.0156 104.257 48.9766 100.211 48.9766H94.0465ZM94.0465 43.2812H100.328C102.187 43.2812 103.601 42.8438 104.57 41.9688C105.554 41.0938 106.047 39.8438 106.047 38.2188C106.047 36.5469 105.554 35.1953 104.57 34.1641C103.586 33.1328 102.226 32.6016 100.492 32.5703H94.0465V43.2812ZM124.703 61H117.906V25H124.703V61ZM145 61C144.687 60.3906 144.461 59.6328 144.32 58.7266C142.679 60.5547 140.547 61.4688 137.922 61.4688C135.437 61.4688 133.375 60.75 131.734 59.3125C130.109 57.875 129.297 56.0625 129.297 53.875C129.297 51.1875 130.289 49.125 132.273 47.6875C134.273 46.25 137.156 45.5234 140.922 45.5078H144.039V44.0547C144.039 42.8828 143.734 41.9453 143.125 41.2422C142.531 40.5391 141.586 40.1875 140.289 40.1875C139.148 40.1875 138.25 40.4609 137.593 41.0078C136.953 41.5547 136.632 42.3047 136.632 43.2578H129.859C129.859 41.7891 130.312 40.4297 131.218 39.1797C132.125 37.9297 133.406 36.9531 135.062 36.25C136.718 35.5312 138.578 35.1719 140.64 35.1719C143.765 35.1719 146.242 35.9609 148.07 37.5391C149.914 39.1016 150.836 41.3047 150.836 44.1484V55.1406C150.851 57.5469 151.187 59.3672 151.843 60.6016V61H145ZM139.398 56.2891C140.398 56.2891 141.32 56.0703 142.164 55.6328C143.007 55.1797 143.632 54.5781 144.039 53.8281V49.4688H141.507C138.117 49.4688 136.312 50.6406 136.093 52.9844L136.07 53.3828C136.07 54.2266 136.367 54.9219 136.961 55.4688C137.554 56.0156 138.367 56.2891 139.398 56.2891ZM162.273 35.6406L162.484 38.5703C164.297 36.3047 166.726 35.1719 169.773 35.1719C172.461 35.1719 174.461 35.9609 175.773 37.5391C177.086 39.1172 177.757 41.4766 177.789 44.6172V61H171.015V44.7812C171.015 43.3438 170.703 42.3047 170.078 41.6641C169.453 41.0078 168.414 40.6797 166.961 40.6797C165.054 40.6797 163.625 41.4922 162.672 43.1172V61H155.898V35.6406H162.273Z" fill="#FF9900"/>
<path d="M194.688 48.9766V61H187.656V26.875H200.969C203.531 26.875 205.781 27.3438 207.719 28.2812C209.672 29.2188 211.172 30.5547 212.219 32.2891C213.266 34.0078 213.789 35.9688 213.789 38.1719C213.789 41.5156 212.641 44.1562 210.344 46.0938C208.062 48.0156 204.898 48.9766 200.852 48.9766H194.688ZM194.688 43.2812H200.969C202.828 43.2812 204.242 42.8438 205.211 41.9688C206.195 41.0938 206.688 39.8438 206.688 38.2188C206.688 36.5469 206.195 35.1953 205.211 34.1641C204.227 33.1328 202.867 32.6016 201.133 32.5703H194.688V43.2812ZM231.273 48.5078H225.672V61H218.641V26.875H231.32C235.352 26.875 238.461 27.7734 240.648 29.5703C242.836 31.3672 243.93 33.9062 243.93 37.1875C243.93 39.5156 243.422 41.4609 242.406 43.0234C241.406 44.5703 239.883 45.8047 237.836 46.7266L245.219 60.6719V61H237.672L231.273 48.5078ZM225.672 42.8125H231.344C233.109 42.8125 234.477 42.3672 235.445 41.4766C236.414 40.5703 236.898 39.3281 236.898 37.75C236.898 36.1406 236.438 34.875 235.516 33.9531C234.609 33.0312 233.211 32.5703 231.32 32.5703H225.672V42.8125ZM277.328 44.7109C277.328 48.0703 276.734 51.0156 275.547 53.5469C274.359 56.0781 272.656 58.0312 270.438 59.4062C268.234 60.7812 265.703 61.4688 262.844 61.4688C260.016 61.4688 257.492 60.7891 255.273 59.4297C253.055 58.0703 251.336 56.1328 250.117 53.6172C248.898 51.0859 248.281 48.1797 248.266 44.8984V43.2109C248.266 39.8516 248.867 36.8984 250.07 34.3516C251.289 31.7891 253 29.8281 255.203 28.4688C257.422 27.0938 259.953 26.4062 262.797 26.4062C265.641 26.4062 268.164 27.0938 270.367 28.4688C272.586 29.8281 274.297 31.7891 275.5 34.3516C276.719 36.8984 277.328 39.8438 277.328 43.1875V44.7109ZM270.203 43.1641C270.203 39.5859 269.562 36.8672 268.281 35.0078C267 33.1484 265.172 32.2188 262.797 32.2188C260.438 32.2188 258.617 33.1406 257.336 34.9844C256.055 36.8125 255.406 39.5 255.391 43.0469V44.7109C255.391 48.1953 256.031 50.8984 257.312 52.8203C258.594 54.7422 260.438 55.7031 262.844 55.7031C265.203 55.7031 267.016 54.7812 268.281 52.9375C269.547 51.0781 270.188 48.375 270.203 44.8281V43.1641Z" fill="#B3B6B2"/>
</svg>
