<svg width="134" height="134" viewBox="0 0 134 134" fill="none" xmlns="http://www.w3.org/2000/svg">
<rect width="134" height="134" fill="#555555"/>
<path d="M55.5547 82.5938L63.2109 42.125H74.8906L62.2734 99H50.4766L41.2188 60.9531L31.9609 99H20.1641L7.54688 42.125H19.2266L26.9219 82.5156L36.2969 42.125H46.2188L55.5547 82.5938ZM92.9766 78.9609V99H81.2578V42.125H103.445C107.716 42.125 111.466 42.9062 114.695 44.4688C117.951 46.0312 120.451 48.2578 122.195 51.1484C123.94 54.013 124.812 57.2812 124.812 60.9531C124.812 66.526 122.898 70.9271 119.07 74.1562C115.268 77.3594 109.995 78.9609 103.25 78.9609H92.9766ZM92.9766 69.4688H103.445C106.544 69.4688 108.901 68.7396 110.516 67.2812C112.156 65.8229 112.977 63.7396 112.977 61.0312C112.977 58.2448 112.156 55.9922 110.516 54.2734C108.875 52.5547 106.609 51.6693 103.719 51.6172H92.9766V69.4688Z" fill="#FF9900"/>
</svg>
