<svg width="199" height="134" viewBox="0 0 199 134" fill="none" xmlns="http://www.w3.org/2000/svg">
<rect width="199" height="134" fill="#555555"/>
<path d="M150.977 78.9609V99H139.258V42.125H161.445C165.716 42.125 169.466 42.9062 172.695 44.4688C175.951 46.0312 178.451 48.2578 180.195 51.1484C181.94 54.013 182.812 57.2812 182.812 60.9531C182.812 66.526 180.898 70.9271 177.07 74.1562C173.268 77.3594 167.995 78.9609 161.25 78.9609H150.977ZM150.977 69.4688H161.445C164.544 69.4688 166.901 68.7396 168.516 67.2812C170.156 65.8229 170.977 63.7396 170.977 61.0312C170.977 58.2448 170.156 55.9922 168.516 54.2734C166.875 52.5547 164.609 51.6693 161.719 51.6172H150.977V69.4688Z" fill="#B3B6B2"/>
<path d="M64.3235 82.5938L71.9798 42.125H83.6595L71.0423 99H59.2454L49.9876 60.9531L40.7298 99H28.9329L16.3157 42.125H27.9954L35.6907 82.5156L45.0657 42.125H54.9876L64.3235 82.5938ZM101.745 78.9609V99H90.0266V42.125H112.214C116.485 42.125 120.235 42.9062 123.464 44.4688C126.719 46.0312 129.219 48.2578 130.964 51.1484C132.709 54.013 133.581 57.2812 133.581 60.9531C133.581 66.526 131.667 70.9271 127.839 74.1562C124.037 77.3594 118.764 78.9609 112.019 78.9609H101.745ZM101.745 69.4688H112.214C115.313 69.4688 117.67 68.7396 119.284 67.2812C120.925 65.8229 121.745 63.7396 121.745 61.0312C121.745 58.2448 120.925 55.9922 119.284 54.2734C117.644 52.5547 115.378 51.6693 112.488 51.6172H101.745V69.4688Z" fill="#FF9900"/>
</svg>
